<svg version="1.2" baseProfile="tiny-ps" xmlns="http://www.w3.org/2000/svg" viewBox="0 0 4991 2075" width="4991" height="2075">
	<title>Nemak_WordMarkSymbolTag_Grad_RGB_WordMarkSymbolTag (2)-svg</title>
	<style>
		tspan { white-space:pre }
		.shp0 { fill: #f8f1f1 } 
	</style>
	<g id="Layer">
		<path id="Layer" fill-rule="evenodd" class="shp0" d="M1338.6 481.2C1344.3 484.2 1349.5 489.6 1351.7 494.8C1355.3 503.3 1367.3 569 1372.4 608C1383.4 691.3 1386 779.8 1379.5 849.5C1376.5 881.4 1372.7 900.4 1366.6 913.3C1356 936.3 1336.9 944.2 1328.3 929.3C1327.1 927.2 1320.5 914.5 1313.7 901C1266.6 807.6 1208.9 725.2 1145.1 659.8L1129.1 643.5L1086.7 686C1041.6 731.2 1025.1 748.6 989.1 788.5C845.6 947.6 716.4 1123.8 619.2 1292.6C616.1 1298 614.1 1300.2 611.4 1301.5C597.4 1308.1 554.4 1291.1 520 1265.4C499.5 1250.1 480.8 1231.4 476.7 1222.1C474.1 1216.1 474.1 1206.2 476.9 1195.5C482.9 1172 503.3 1110.6 519.2 1068C595.8 862.6 709.3 668.1 814 562.9C859.6 517.1 898.5 491.5 936.4 482.2C946 479.9 969.7 480 983.5 482.4C1041.9 492.7 1096 518.9 1151.6 563.8L1156.6 567.9L1166.6 560.8C1185.2 547.5 1227.5 519.8 1244.9 509.4C1272.8 492.7 1291.1 483.8 1305.5 479.9C1316.1 477 1331.7 477.7 1338.6 481.2ZM1309.3 511.4C1294.4 509.8 1249.9 538.1 1197.2 582.8L1184.9 593.2L1200.7 609.4C1249 658.4 1294.9 720.8 1329.4 784.5C1338.7 801.6 1341.5 805.4 1342.9 803.2C1346.3 797.6 1344.3 721.5 1338.9 658C1335.1 612.5 1328.9 567.5 1321.9 536C1317.8 517.4 1317.3 515.6 1315.1 513.6C1314 512.6 1311.4 511.6 1309.3 511.4ZM986.7 578.6C963 583.9 944.6 595.1 919 619.7C870.5 666.4 823.6 733.1 779.7 818C766.1 844.2 742.5 895 735 914.1L732.9 919.4L737.7 915C740.3 912.5 751.1 902.6 761.5 892.9C851.4 809.4 969.8 709.2 1067.5 634.1C1081.3 623.5 1092.6 614.5 1092.8 614C1093.2 612.9 1079.1 603.7 1065.5 596.2C1051.5 588.5 1039.9 583.5 1028.5 580.4C1016.8 577.1 996.9 576.3 986.7 578.6Z" />
		<path id="Layer" class="shp0" d="M4134.5 513.2C4134 514.7 3973 1222.8 3973 1223.5C3973 1223.8 3999.5 1224 4031.8 1224L4090.7 1224L4091.7 1219.7C4092.2 1217.4 4104.3 1165.2 4118.5 1103.8C4133.2 1040.7 4144.8 992.4 4145.3 992.9C4145.8 993.4 4183.4 1045.5 4228.9 1108.6L4311.7 1223.5L4374.9 1223.8C4409.6 1223.9 4438 1223.7 4438 1223.3C4438 1222.8 4400.3 1169.6 4354.4 1105C4308.4 1040.4 4265.5 980 4259 970.8L4247.1 954.1L4378.3 828.7C4450.5 759.8 4510.1 702.6 4510.9 701.7C4512.2 700.1 4507.8 700 4447.4 700L4382.5 700L4274.6 799.1C4215.3 853.6 4166.7 898 4166.5 897.8C4166.3 897.6 4185.5 812.4 4209.1 708.5C4232.7 604.5 4252.3 517.8 4252.6 515.7L4253.3 512L4194.1 512C4147.7 512 4134.8 512.3 4134.5 513.2Z" />
		<path id="Layer" class="shp0" d="M1576.6 865.7C1535 1058.1 1500.6 1216.3 1500.4 1217.2C1499.9 1218.9 1503.5 1219 1565.9 1219C1627.9 1219 1631.9 1218.9 1632.4 1217.2C1632.7 1216.3 1658 1094.1 1688.6 945.8C1719.3 797.4 1744.5 676.2 1744.7 676.3C1744.8 676.5 1772.9 797.9 1807 946.1C1841.1 1094.3 1869.3 1216.3 1869.6 1217.2C1870.1 1218.9 1874.2 1219 1938 1219C2001.8 1219 2005.9 1218.9 2006.4 1217.2C2007.6 1213.1 2168 518.1 2168 517.1C2168 516.3 2150 516 2104.7 516L2041.4 516L1986.4 772.5C1956.2 913.6 1931.3 1029 1931 1029C1930.7 1029 1904.4 913.6 1872.5 772.5L1814.5 516L1733.5 516L1652.4 516L1576.6 865.7Z" />
		<path id="Layer" class="shp0" d="M3244.5 694.6C3203.9 697.6 3172.9 703.3 3142.4 713.5C3128.7 718 3106.8 728 3098.1 733.7L3093.6 736.5L3085.6 731.2C3060.5 714.4 3028.5 703.6 2987 697.8C2968.4 695.3 2918.6 694.2 2895.9 695.9C2844.8 699.8 2794.1 710.6 2761.3 724.6C2747.7 730.4 2736.8 737 2735.8 740.1C2735.4 741.4 2712.1 849.1 2684 979.5C2656 1109.8 2632.8 1217.5 2632.5 1218.7L2632 1221L2694.8 1221L2757.7 1221L2771.4 1156.7C2778.9 1121.4 2798.9 1027.5 2815.9 948L2846.7 803.5L2860.6 800.8C2887.2 795.6 2905.6 793.7 2929 793.6C2952.6 793.6 2963.2 794.9 2978.2 799.6C3003.7 807.7 3019.4 822.8 3023.9 843.8C3026.4 855.4 3025.5 862.5 3014 923.3C2985.3 1076.2 2959.9 1209 2958.5 1214.1C2957.7 1217.1 2957 1219.9 2957 1220.3C2957 1220.7 2985.2 1221 3019.8 1221L3082.5 1221L3125.9 1017.2C3149.7 905.2 3169.6 812.8 3170 812C3170.9 810.3 3191.6 804.4 3208.5 801.1C3243.5 794.1 3276.1 794.3 3297.9 801.6C3310.5 805.8 3318.8 810.8 3327.1 819C3338.5 830.2 3344 843.1 3344 858.5C3344 865.9 3340 887.8 3294 1129.6C3284.6 1178.7 3277 1219.3 3277 1219.9C3277 1220.7 3294.1 1221 3339 1221C3375.4 1221 3401 1220.6 3401 1220.1C3401 1219.6 3415.9 1138.3 3434.2 1039.3L3467.4 859.5L3467.3 844.5C3467.3 822.5 3463.4 805.7 3453.8 786.5C3428.8 736.7 3377.2 705.5 3305 696.5C3293 695 3255 693.8 3244.5 694.6Z" />
		<path id="Layer" fill-rule="evenodd" class="shp0" d="M2464.8 696.1C2488.2 698.6 2514.7 705.3 2536 713.9C2585.6 734 2618 767.7 2629.2 810.7C2631.9 821.2 2632.3 824.6 2632.7 840.8C2633.3 860.2 2632.3 872.6 2628.9 886.8C2613.2 954.7 2557.9 993.6 2466.7 1001C2459.7 1001.5 2427 1002.1 2394.2 1002.1C2361.4 1002.2 2319 1002.6 2300 1002.9L2265.5 1003.5L2265.5 1015.5C2265.6 1028.7 2267 1037.6 2270.8 1049C2284.4 1090.2 2325.1 1122.1 2373.5 1129.7C2392.3 1132.6 2430 1130.2 2455.7 1124.4C2478 1119.4 2501 1110.1 2512.9 1101.1C2515.9 1098.8 2518.7 1097.3 2519.1 1097.7C2521 1099.8 2567.3 1164.5 2567.7 1165.7C2568.4 1167.5 2561.6 1174.6 2553 1181C2523.7 1202.6 2473.9 1218.9 2419.5 1224.5C2400.9 1226.4 2365 1226.7 2348.5 1225C2289.9 1219.2 2245.3 1199.5 2209.5 1163.6C2187.1 1141.2 2171.7 1115.4 2162.1 1084.3C2154.8 1060.9 2152.5 1042.9 2152.6 1011.5C2152.9 936.1 2171.3 866.6 2204.8 814.5C2223.7 785.2 2253.6 755.9 2283.5 737.7C2309.6 721.8 2340.2 709.7 2372.5 702.5C2384 699.9 2405.6 696.5 2415 695.7C2425.4 694.9 2455.8 695.1 2464.8 696.1ZM2394.5 793.4C2341.3 805.7 2303.1 841.8 2284.4 897.4C2282 904.6 2280 911.2 2280 912.1C2280 914.8 2300 915.3 2376.5 914.7C2446.5 914.2 2462.2 913.4 2477 909.9C2513.4 901.3 2538.1 868.9 2531.6 838.2C2525.9 811.2 2501.3 794 2462.6 790.1C2440.4 787.9 2412.8 789.2 2394.5 793.4Z" />
		<path id="Layer" fill-rule="evenodd" class="shp0" d="M3810.8 696.1C3834.9 698.7 3860.3 705.7 3879.4 714.9C3922 735.7 3947.4 769.6 3956.7 818.3C3959.4 832.6 3959.2 875.8 3956.2 893.6C3949.1 936.7 3885.8 1218.2 3882.8 1220.1C3880.2 1221.7 3841.6 1227.1 3816 1229.4C3771.3 1233.5 3704.7 1234 3677 1230.6C3630.9 1224.8 3596.4 1214.6 3568 1198.6C3519.7 1171.2 3496.4 1129.8 3498.3 1075C3499.3 1045.5 3506.2 1023.1 3521.3 1000.2C3554.5 949.9 3617 920.2 3710.5 910.4C3738.6 907.4 3822 908.2 3837.7 911.5C3839.7 912 3840.1 911.3 3841.9 905.3C3848 884.3 3849.7 859.6 3846.2 842.7C3838.5 805.5 3810.3 787 3761.5 787C3702.9 787 3640.2 811.3 3591.5 852.8C3587.5 856.2 3585.3 857.5 3584.9 856.7C3583.9 855 3559 773.7 3559 772.5C3559.1 771 3576.9 757.5 3592.4 747.2C3609 736.2 3639.2 721 3657.2 714.6C3680.5 706.2 3710.4 699.5 3734.5 697.1C3740.6 696.5 3746.9 695.8 3748.5 695.6C3755.9 694.8 3802 695.1 3810.8 696.1ZM3727 1000.1C3689.4 1002.6 3656.7 1009.6 3637.8 1019.1C3610.1 1033 3596.1 1056.3 3601.1 1080.2C3605.7 1102 3623.9 1120.3 3649.5 1128.9C3680.3 1139.2 3752.1 1140.2 3787.7 1130.9C3792 1129.8 3795.6 1128.8 3795.7 1128.7C3796.1 1128.2 3821.7 1003.4 3821.4 1003.1C3821.2 1002.9 3815 1002.1 3807.7 1001.4C3790.1 999.7 3743.8 998.9 3727 1000.1Z" />
		<path id="Layer" class="shp0" d="M3138.5 1415.2C3138.2 1416.5 3129.6 1456.9 3119.5 1505C3109.3 1553.1 3100.7 1593.1 3100.5 1593.7C3100.2 1594.7 3102.9 1595 3111.9 1595L3123.7 1595L3125.3 1587.2C3141.2 1512.2 3142.6 1507 3149.8 1497.5C3151.8 1494.7 3156.4 1490.6 3159.9 1488.3C3175.2 1478 3195.8 1478 3202 1488.3C3205.6 1494.2 3204.8 1501.3 3194.5 1549.7C3189.3 1574.3 3185 1594.5 3185 1594.7C3185 1594.9 3190.4 1595 3197 1595C3203.6 1595 3209 1594.8 3209 1594.6C3209 1594.5 3213.3 1574.1 3218.7 1549.4C3227.7 1507.3 3228.3 1503.8 3228.4 1492.5C3228.5 1481.8 3228.2 1480 3226.1 1475.8C3223.4 1470.2 3218.3 1465.5 3212.1 1462.7C3206.4 1460.2 3187.4 1459.2 3178.9 1460.9C3170.8 1462.6 3162.2 1467 3154.8 1473.3C3151 1476.5 3148.4 1478.1 3148.6 1477.2C3150 1471.1 3162 1414.6 3162 1413.9C3162 1413.4 3156.8 1413 3150.5 1413C3139.4 1413 3139 1413.1 3138.5 1415.2Z" />
		<path id="Layer" class="shp0" d="M3866.5 1414.2C3866.2 1414.9 3857.7 1454.9 3847.5 1503C3837.3 1551.1 3828.8 1591.5 3828.5 1592.8L3827.9 1595.1L3839.7 1594.8L3851.4 1594.5L3859.1 1558C3867.8 1516.9 3868.8 1513.2 3873.7 1503.8C3883.4 1485.2 3907.1 1475.4 3923.7 1483.2C3929.8 1486 3932.5 1491.9 3931.7 1500.8C3931.4 1504.5 3927 1526.7 3922.1 1550.2C3917.1 1573.7 3913 1593.4 3913 1594C3913 1594.6 3917.4 1595 3924.8 1595L3936.5 1595L3946.2 1548.7C3951.6 1523.3 3956.2 1499.8 3956.5 1496.4C3956.9 1493.1 3956.6 1487.5 3956 1483.9C3953 1467.2 3942.4 1460 3920.6 1460C3904.3 1460 3892.9 1463.9 3882.5 1473.3C3879.4 1476 3876.7 1478.1 3876.5 1477.9C3876.2 1477.6 3886.5 1428.2 3889.5 1415.2C3890 1413 3890 1413 3878.5 1413C3870.2 1413 3866.8 1413.3 3866.5 1414.2Z" />
		<path id="Layer" class="shp0" d="M1593.6 1415.7C1592.6 1419 1556 1592.3 1556 1593.7C1556 1594.8 1558.5 1595 1568.7 1594.8L1581.5 1594.5L1597.2 1520.5C1605.8 1479.8 1614.5 1439.2 1616.3 1430.2L1619.8 1414L1607 1414C1595.6 1414 1594.1 1414.2 1593.6 1415.7Z" />
		<path id="Layer" class="shp0" d="M2411 1414.6C2411 1414.9 2409.9 1420.1 2408.5 1426.2C2407.1 1432.3 2406 1437.9 2406 1438.7C2406 1439.8 2408.2 1440 2417.7 1439.8L2429.4 1439.5L2431.5 1429.5C2432.7 1424 2434 1418.3 2434.3 1416.7L2435 1414L2423 1414C2416.4 1414 2411 1414.3 2411 1414.6Z" />
		<path id="Layer" class="shp0" d="M2805.9 1414.2C2805.9 1414.4 2797.2 1455.1 2786.6 1504.7L2767.4 1595L2826 1595L2884.6 1595L2886.4 1585.8C2887.5 1580.8 2888.5 1575.8 2888.8 1574.8C2889.2 1573.1 2887.1 1573 2843.5 1573L2797.8 1573L2798.4 1570C2798.7 1568.3 2806.2 1533 2815 1491.6C2823.8 1450.2 2831 1415.8 2831 1415.2C2831 1414.3 2827.3 1414 2818.5 1414C2811.6 1414 2806 1414.1 2805.9 1414.2Z" />
		<path id="Layer" class="shp0" d="M2942.6 1415.7C2942.3 1416.7 2941 1422.6 2939.7 1428.7L2937.3 1440L2949 1440L2960.8 1440L2962.9 1430.9C2964.1 1425.9 2965.3 1420.1 2965.6 1417.9L2966.3 1414L2954.7 1414C2944.6 1414 2943.1 1414.2 2942.6 1415.7Z" />
		<path id="Layer" class="shp0" d="M3668.2 1424.7C3667 1430.7 3665.7 1436.5 3665.4 1437.7C3664.8 1440 3664.8 1440 3676.7 1440L3688.7 1440L3690.9 1429.2C3692.2 1423.3 3693.4 1417.5 3693.7 1416.2C3694.2 1414 3694.1 1414 3682.3 1414L3670.4 1414L3668.2 1424.7Z" />
		<path id="Layer" class="shp0" d="M4074.1 1424.7C4072.8 1430.7 4071.6 1436.5 4071.3 1437.7C4070.8 1440 4070.9 1440 4082.7 1440L4094.6 1440L4096.8 1429.2C4098 1423.3 4099.3 1417.5 4099.6 1416.2C4100.2 1414 4100.2 1414 4088.3 1414L4076.3 1414L4074.1 1424.7Z" />
		<path id="Layer" class="shp0" d="M2342.7 1428.2C2342.3 1429.5 2340.7 1437 2339 1445C2337.3 1453 2335.7 1460.3 2335.4 1461.2C2334.9 1462.7 2333.6 1463 2326.1 1463L2317.3 1463L2315.7 1470.8C2313.1 1482.7 2312.6 1482 2322.6 1482C2331 1482 2331.2 1482 2330.7 1484.2C2330.4 1485.5 2326.1 1505.7 2321.1 1529.2C2311.3 1575.2 2310.6 1581.3 2314 1588.8C2316.9 1595.2 2321.5 1597 2335.5 1596.9C2350.5 1596.8 2351.2 1596.5 2352.7 1590.5C2353.4 1587.9 2354.2 1583.7 2354.6 1581.3L2355.2 1577L2347.6 1577C2341.3 1577 2339.6 1576.6 2338 1575C2336.9 1573.9 2336 1572.2 2336 1571.2C2336 1570.3 2340.2 1549.9 2345.3 1526L2354.6 1482.5L2365.2 1482.2L2375.8 1481.9L2377.7 1472.7L2379.6 1463.5L2369.3 1463.2C2363.6 1463.1 2359 1462.6 2359 1462.2C2359 1461.8 2360.6 1454.2 2362.5 1445.3C2364.4 1436.3 2366 1428.4 2366 1427.5C2366 1426.2 2364.1 1426 2354.6 1426C2343.6 1426 2343.2 1426.1 2342.7 1428.2Z" />
		<path id="Layer" class="shp0" d="M3280.5 1427.2C3279.9 1428.8 3273 1461.2 3273 1462.2C3273 1462.7 3269 1463 3264 1463C3255.5 1463 3255 1463.1 3254.5 1465.2C3251.9 1476.4 3251 1480.6 3251 1481.2C3251 1481.6 3255 1482.1 3259.8 1482.2L3268.6 1482.5L3259.2 1526C3248.9 1574.1 3247.8 1582.6 3251.5 1588.9C3255.6 1595.9 3257.5 1596.5 3273.6 1596.5C3284.9 1596.5 3288.3 1596.2 3288.9 1595.1C3289.4 1594.3 3290.3 1591 3291 1587.6C3291.6 1584.2 3292.4 1580.5 3292.7 1579.2C3293.2 1577.1 3293 1577 3285.8 1577C3277.3 1577 3274 1575.4 3274 1571.2C3274 1569.7 3278.1 1549.1 3283.1 1525.3L3292.3 1482.1L3302.8 1481.8L3313.4 1481.5L3315.2 1473.5C3316.1 1469.1 3317 1464.9 3317 1464.2C3317 1463.3 3314.3 1463 3306.7 1463L3296.3 1463L3300.1 1445.2C3302.2 1435.5 3304 1427.2 3304 1426.7C3304 1425.4 3281 1425.9 3280.5 1427.2Z" />
		<path id="Layer" class="shp0" d="M4005.1 1441.2C4003.3 1449.6 4001.5 1457.8 4001.1 1459.5L4000.4 1462.5L3991.4 1462.8L3982.3 1463.1L3981.1 1469.5C3980.5 1473.1 3979.7 1477.3 3979.4 1479L3978.8 1482L3987.4 1482C3992.1 1482 3996 1482.4 3996 1482.9C3996 1483.4 3991.7 1504 3986.4 1528.7C3976.1 1576.8 3975.5 1582.3 3979.4 1589.8C3982.4 1595.7 3987.9 1597.3 4003.1 1596.8C4010.1 1596.6 4016.1 1596.2 4016.4 1595.9C4016.7 1595.6 4017.8 1591.2 4018.9 1586.2L4020.7 1577L4013.8 1577C4010 1577 4006 1576.5 4005 1576C4000.5 1573.6 4000.6 1573 4010 1528.8C4014.9 1505.5 4019.2 1485.5 4019.5 1484.2C4020 1482.1 4020.5 1482 4030.5 1482C4042.2 1482 4041 1482.9 4043 1472.5C4043.6 1469.2 4044.4 1465.7 4044.6 1464.7C4045.1 1463.2 4044.2 1463 4034.5 1463C4024.9 1463 4023.9 1462.8 4024.4 1461.2C4024.6 1460.3 4026.3 1452.7 4028 1444.5C4029.7 1436.2 4031.4 1428.7 4031.6 1427.7C4032.1 1426.2 4031.1 1426 4020.2 1426L4008.3 1426L4005.1 1441.2Z" />
		<path id="Layer" fill-rule="evenodd" class="shp0" d="M2014.7 1471.3C2025.7 1481.4 2030 1495.3 2028 1514.4C2025.4 1539.5 2015.7 1561.7 2000.4 1577.9C1991.1 1587.7 1983.3 1592.8 1971.5 1596.7C1964.3 1599.1 1962 1599.4 1948.5 1599.4C1936.4 1599.5 1932.4 1599.1 1928 1597.7C1905.5 1590.1 1895.3 1567.7 1900.4 1537C1904.6 1512.3 1913.5 1494.5 1929.4 1479.2C1939.2 1469.8 1952 1462.8 1963.5 1460.6C1984.1 1456.5 2003 1460.5 2014.7 1471.3ZM1966.3 1480C1955.8 1482.2 1947.7 1487.6 1940.5 1497.2C1926.4 1516 1919.6 1546.8 1926 1563.5C1930.6 1575.6 1940 1580.8 1955.4 1579.7C1970.4 1578.7 1979 1573.6 1987.7 1560.7C1998 1545.3 2003.2 1528.6 2003.4 1511C2003.5 1501 2003.2 1498.8 2001.2 1494.4C1998.4 1488.1 1995 1484.8 1988.9 1482.1C1983.6 1479.7 1972.4 1478.7 1966.3 1480Z" />
		<path id="Layer" class="shp0" d="M1695 1461.5C1686.6 1463.9 1678.2 1468.1 1670.8 1473.9C1667 1476.7 1664 1478.5 1664 1477.8C1664.1 1477.1 1664.7 1473.8 1665.5 1470.5C1666.3 1467.2 1667 1464.2 1667 1463.7C1667 1463.3 1662.1 1463 1656.1 1463C1646.5 1463 1645.1 1463.2 1644.6 1464.7C1644.3 1465.7 1638.2 1494.4 1631 1528.5C1623.8 1562.6 1617.6 1591.5 1617.3 1592.8L1616.8 1595.1L1628.6 1594.8L1640.4 1594.5L1647.1 1562.5C1656.7 1517.3 1657.7 1513.2 1661 1506.1C1664.9 1497.9 1673.7 1489.3 1682.6 1484.9C1688.4 1482 1690.5 1481.5 1698.4 1481.2C1706.4 1480.9 1708.1 1481.1 1712 1483.2C1714.6 1484.5 1717.3 1487 1718.5 1489C1722.2 1495.5 1721.3 1503.9 1711.1 1551C1706.1 1574.4 1702 1593.8 1702 1594.2C1702 1594.7 1707.3 1595 1713.8 1595L1725.5 1595L1734.8 1550.7C1740 1526.4 1744.6 1503.1 1745.1 1499C1747.5 1480.1 1741.5 1467.3 1728.1 1462.4C1721.5 1460.1 1702.2 1459.5 1695 1461.5Z" />
		<path id="Layer" class="shp0" d="M1839 1461.5C1830.6 1463.9 1822.2 1468.1 1814.8 1473.9C1811 1476.7 1808 1478.5 1808 1477.8C1808.1 1477.1 1808.7 1473.8 1809.5 1470.5C1810.3 1467.2 1811 1464.2 1811 1463.7C1811 1463.3 1806.1 1463 1800.1 1463C1790.5 1463 1789.1 1463.2 1788.6 1464.7C1788.3 1465.7 1782.2 1494.4 1775 1528.5C1767.8 1562.6 1761.6 1591.5 1761.3 1592.8L1760.8 1595.1L1772.6 1594.8L1784.4 1594.5L1791.1 1562.5C1800.7 1517.3 1801.7 1513.2 1805 1506.1C1808.9 1497.9 1817.7 1489.3 1826.6 1484.9C1832.4 1482 1834.5 1481.5 1842.4 1481.2C1850.4 1480.9 1852.1 1481.1 1856 1483.2C1858.6 1484.5 1861.3 1487 1862.5 1489C1866.2 1495.5 1865.3 1503.9 1855.1 1551C1850.1 1574.4 1846 1593.8 1846 1594.2C1846 1594.7 1851.3 1595 1857.8 1595L1869.5 1595L1878.8 1550.7C1884 1526.4 1888.6 1503.1 1889.1 1499C1891.5 1480.1 1885.5 1467.3 1872.1 1462.4C1865.5 1460.1 1846.2 1459.5 1839 1461.5Z" />
		<path id="Layer" fill-rule="evenodd" class="shp0" d="M2243.6 1460.1C2257.3 1460 2263.6 1460.9 2272 1464.3C2279.5 1467.4 2283.2 1470.4 2286.4 1476.1C2290.7 1483.8 2290.2 1489.1 2280.4 1535.2C2273.3 1568.5 2272 1576.3 2273 1577.5C2273.8 1578.5 2276.1 1579 2280 1579L2285.8 1579L2284.4 1585.2C2283.6 1588.7 2282.8 1592.5 2282.5 1593.7C2281.8 1596.6 2276.8 1598 2267 1598C2255.7 1598 2250.6 1594.1 2249.2 1584.5L2248.5 1580L2243 1584.1C2223.1 1599 2195.1 1604.2 2178.7 1595.8C2169.4 1591.1 2163 1580.3 2163 1569.4C2163 1553 2171.9 1537 2185.9 1528.5C2195.6 1522.6 2204.6 1520.3 2230.4 1517.1C2247 1515 2255.2 1513.5 2257.4 1512.3C2264.2 1508.4 2267.8 1494 2263.7 1487.6C2262.6 1486.1 2259.3 1483.7 2256.2 1482.2C2251.2 1479.9 2249.2 1479.6 2240 1479.6C2231.4 1479.6 2228.4 1480.1 2223.6 1482C2216.2 1484.8 2210.3 1490.7 2207 1498.2L2204.5 1504L2182.8 1504L2183.5 1500.7C2185.6 1491.3 2192.5 1479.3 2198.9 1473.9C2204.1 1469.6 2215.3 1464.3 2224 1462.1C2229.3 1460.7 2235 1460.1 2243.6 1460.1ZM2249.6 1532.1C2246.4 1533.1 2236.9 1534.9 2228.6 1536C2210.6 1538.4 2202.7 1540.8 2197 1545.7C2191.8 1550.2 2188 1557.9 2188 1564.1C2188 1580.2 2209 1584.8 2231.6 1573.8C2245.4 1567.1 2252.2 1557.9 2256 1540.5C2257.1 1535.5 2258 1531.2 2258 1530.7C2258 1529.7 2256.3 1530 2249.6 1532.1Z" />
		<path id="Layer" fill-rule="evenodd" class="shp0" d="M2652.5 1461.5C2666.2 1465.1 2677.8 1474.6 2682.1 1485.8C2685.9 1495.7 2685.8 1513.6 2681.8 1532.2L2680.8 1537L2584.3 1537L2583.6 1540.7C2582 1550.9 2584 1563.4 2588.5 1570.2C2593.4 1577.5 2607.3 1581.5 2619.5 1579C2631.8 1576.5 2643.5 1568.4 2649.5 1558.1L2652.5 1553L2663.8 1553C2676.5 1553 2676.5 1552.9 2672.5 1560.5C2666 1572.6 2653.3 1585.5 2642.2 1591.3C2631.6 1596.8 2623 1599.1 2610 1599.7C2593 1600.5 2582.8 1597.5 2573.3 1588.7C2558.2 1574.8 2554.5 1554.2 2562.1 1525.5C2570.5 1493.2 2594.7 1467.5 2622.1 1461.5C2630.8 1459.7 2645.3 1459.7 2652.5 1461.5ZM2613 1485.7C2603.4 1491.3 2592.8 1504.8 2589.5 1515.7L2588.9 1518L2661.2 1518L2660.8 1507.7C2660.5 1499.8 2659.9 1496.6 2658.3 1493.5C2655.6 1488.4 2651.5 1484.5 2646.6 1482.5C2637.3 1478.6 2622.8 1480 2613 1485.7Z" />
		<path id="Layer" fill-rule="evenodd" class="shp0" d="M3043.3 1461C3053.5 1462.5 3059.2 1465.4 3065.5 1472.1C3068.4 1475.4 3071.1 1478 3071.3 1478C3071.5 1478 3072.2 1474.8 3072.9 1471L3074.2 1464L3085.1 1464C3095.9 1464 3096 1464 3095.5 1466.2C3095.2 1467.5 3089.1 1496.2 3082 1530C3074.8 1563.8 3067.8 1595 3066.5 1599.4C3058 1626.1 3042.3 1642.1 3018.5 1648.6C3009.6 1651 2990.2 1651.5 2981.3 1649.7C2968.4 1646.9 2959.1 1640.9 2954.7 1632.5C2953.2 1629.6 2952.5 1626 2952.2 1619.7L2951.8 1611L2976 1611L2976 1614.7C2976 1619.8 2979.7 1625.9 2984.1 1628.2C2993.3 1632.9 3009.9 1632.7 3021.1 1627.7C3034.9 1621.5 3041.8 1610 3048.4 1582.6L3049.1 1579.6L3045.8 1582.3C3033.1 1592.7 3025 1595.9 3009.5 1596.7C2983.3 1598.1 2965.3 1584.6 2963.1 1561.7C2961.2 1541 2967.5 1514.1 2978.7 1495.7C2989.3 1478.2 3009.6 1463.6 3027 1461.1C3034.7 1459.9 3035.6 1459.9 3043.3 1461ZM3015.7 1486.4C3000.9 1495 2988.8 1520.1 2987.3 1545.2C2986.6 1556.5 2987.8 1562.4 2992 1568.5C3002 1583 3028.7 1580.2 3044.2 1563C3058.8 1546.8 3067.1 1511.9 3060.1 1496.2C3057.2 1489.7 3051.3 1484.5 3044.6 1482.5C3035.4 1479.8 3024.4 1481.2 3015.7 1486.4Z" />
		<path id="Layer" fill-rule="evenodd" class="shp0" d="M3588.2 1461.1C3601.4 1463.9 3612.9 1472.1 3618 1482.3C3622.7 1491.9 3623.8 1502.7 3621.6 1518.3C3620.7 1525.2 3619.5 1532 3619.1 1533.6L3618.4 1536.5L3570.5 1536.8C3533.7 1537 3522.4 1537.3 3521.8 1538.3C3521.4 1538.9 3521 1543.6 3521 1548.6C3521 1568.4 3528.5 1578.1 3545.1 1579.6C3561.5 1581.2 3579.1 1572 3587.6 1557.5L3590.2 1553L3601.7 1553C3614.7 1553 3614.5 1552.8 3609.5 1561.6C3599.2 1579.4 3582.5 1592.8 3564.5 1597.6C3556 1599.8 3539.5 1600.6 3531.8 1599C3514 1595.5 3500.7 1582.2 3496.9 1564.1C3495.2 1555.7 3496.3 1538.4 3499.4 1526.5C3504.2 1507.9 3516 1488 3528.2 1477.9C3538.3 1469.5 3546.7 1465.1 3558.5 1462C3566.5 1459.8 3580.2 1459.4 3588.2 1461.1ZM3561 1481.4C3548.5 1485 3537.3 1494.7 3531 1507.3C3528.8 1511.7 3527 1515.9 3527 1516.6C3527 1517.8 3532.7 1518 3562.8 1517.8L3598.5 1517.5L3598.8 1510.7C3599.4 1497.5 3594.9 1488.2 3585.9 1483.7C3579.1 1480.3 3568.1 1479.3 3561 1481.4Z" />
		<path id="Layer" fill-rule="evenodd" class="shp0" d="M3780 1463.1C3786.3 1465.3 3791.2 1468.9 3795.7 1474.8L3798.8 1478.9L3800.5 1471.5L3802.1 1464L3812.6 1464C3821.5 1464 3823 1464.2 3823 1465.6C3823 1467.9 3798.3 1583.8 3795.8 1593.5C3791.1 1611.4 3784 1624.1 3773.4 1633.9C3765.7 1640.9 3758.1 1645.1 3747.5 1648.2C3736.3 1651.4 3712.7 1651.4 3703.3 1648.3C3694.7 1645.4 3687.6 1640.7 3684.1 1635.4C3680.8 1630.4 3678.5 1619.9 3679.6 1614.5L3680.2 1611L3702.9 1611L3703.6 1615.5C3703.9 1618 3705.2 1621.5 3706.4 1623.3C3714.7 1635.8 3746 1634 3759.9 1620.1C3766.2 1613.8 3771.7 1601.5 3775.4 1585.2L3776.8 1579L3771.7 1583.6C3755.7 1598 3728.3 1601.4 3709.8 1591.3C3702.8 1587.5 3695.7 1579.6 3693.1 1572.6C3685.2 1551.4 3694.6 1509.5 3712.2 1487.6C3723.8 1473.2 3739.7 1463.4 3755.4 1461C3762.4 1459.9 3773.4 1460.8 3780 1463.1ZM3737.8 1490.2C3733.1 1493.9 3724.8 1506.1 3722 1513.7C3714.6 1533.3 3712.5 1553.8 3716.8 1563.5C3719.6 1569.6 3722.3 1572.6 3727.4 1575.2C3739.4 1581.3 3758 1576.8 3770 1564.8C3786.1 1548.7 3795.1 1513.5 3787.7 1495.7C3785.4 1490.3 3778.6 1484.2 3772.7 1482.5C3761.1 1479.1 3748.3 1481.9 3737.8 1490.2Z" />
		<path id="Layer" class="shp0" d="M4172 1461.6C4163.7 1463.8 4155.3 1468.1 4147.8 1473.9C4144 1476.7 4141 1478.5 4141 1477.8C4141 1477.1 4141.7 1473.8 4142.5 1470.5C4143.3 1467.2 4143.9 1464.2 4144 1463.7C4144 1463.3 4139.1 1463 4133.1 1463C4123.5 1463 4122.1 1463.2 4121.6 1464.7C4121 1466.5 4094 1593.8 4094 1594.6C4094 1594.9 4099.2 1594.9 4105.7 1594.8L4117.3 1594.5L4125.2 1557.5C4133.9 1516.4 4135.1 1511.8 4138.7 1504.6C4142.3 1497.6 4151.5 1488.9 4159.5 1484.9C4165 1482.2 4167.7 1481.6 4174.6 1481.2C4185.6 1480.6 4191 1482.5 4194.8 1488.3C4199.4 1495.2 4198.7 1501.9 4188.1 1550.9C4183.1 1574.2 4179 1593.7 4179 1594.2C4179 1594.7 4184.3 1594.9 4190.7 1594.8L4202.5 1594.5L4211.7 1551.5C4216.7 1527.8 4221.3 1504.4 4222 1499.4C4224.6 1478.3 4217.8 1465.7 4201.5 1461.5C4194.1 1459.6 4179.3 1459.7 4172 1461.6Z" />
		<path id="Layer" fill-rule="evenodd" class="shp0" d="M4324.6 1462.7C4331.4 1464.8 4336.8 1468.6 4341 1474.3L4344.5 1479L4345.6 1474.3C4346.3 1471.6 4347.1 1468.3 4347.4 1466.7L4348 1464L4358.5 1464C4366.4 1464 4369 1464.3 4369 1465.3C4369 1467.8 4342 1593.6 4340.4 1598.5C4331.5 1625.9 4315.8 1642.2 4292.5 1648.5C4284.1 1650.7 4264.7 1651.6 4256.9 1650.1C4242.1 1647.1 4232.8 1641.5 4228.6 1632.8C4225.9 1627.2 4224.3 1617.8 4225.4 1613.6L4226 1611L4248.8 1611L4249.4 1615.4C4250.8 1624.8 4257.7 1630.3 4269.5 1631.5C4283.4 1633 4297.9 1628.1 4306.3 1619.1C4312.4 1612.6 4316.1 1604.6 4319.9 1590.2L4322.9 1578.9L4318 1583.3C4305.4 1594.7 4285.5 1599.6 4267.8 1595.9C4256.7 1593.5 4245.1 1585.1 4240.5 1576C4233.7 1562.5 4235 1537.5 4244 1512.9C4253.8 1485.8 4276.9 1464.7 4300.7 1461C4307.9 1459.9 4317.9 1460.6 4324.6 1462.7ZM4299.7 1482C4280.7 1486.8 4267.8 1505 4261.9 1535.3C4259.6 1547.1 4259.5 1551.8 4261.5 1559.5C4265.2 1573.5 4276.3 1579.9 4292.4 1577.1C4310.9 1574 4325.4 1558.6 4332.5 1534.5C4335.6 1524 4336.9 1507 4335.1 1500.4C4333.3 1493.8 4328.6 1487.6 4322.8 1484.5C4317.1 1481.4 4306.8 1480.3 4299.7 1482Z" />
		<path id="Layer" class="shp0" d="M2050 1463.7C2050.1 1464.2 2054.7 1493.7 2060.3 1529.5L2070.5 1594.5L2083 1594.8L2095.5 1595.1L2131 1534.8C2150.5 1501.7 2168 1472 2169.8 1468.8L2173.1 1463L2160.3 1463L2147.5 1463L2118.5 1515.2C2092.1 1562.7 2089.5 1567.1 2088.8 1564.4C2088.1 1561.9 2077 1467.1 2077 1464.1C2077 1463.4 2072.4 1463 2063.5 1463C2056.1 1463 2050 1463.3 2050 1463.7Z" />
		<path id="Layer" class="shp0" d="M2400.5 1464.2C2400.2 1465.3 2375.5 1581.1 2373.4 1591.7L2372.8 1595L2384.6 1595L2396.5 1595L2409.8 1531.7C2417.2 1497 2423.4 1467.3 2423.7 1465.7L2424.2 1463L2412.6 1463C2404.2 1463 2400.8 1463.3 2400.5 1464.2Z" />
		<path id="Layer" class="shp0" d="M2442 1464.1C2442 1464.7 2446.5 1493.9 2452 1529C2457.5 1564.1 2462 1593.3 2462 1593.9C2462 1594.7 2465.9 1595 2474.8 1595L2487.5 1594.9L2523.8 1533.2C2543.7 1499.3 2561.2 1469.6 2562.6 1467.2L2565.1 1463L2552.2 1463L2539.3 1463L2510.4 1515C2494.5 1543.6 2481.3 1567 2481 1567C2480.7 1567 2477.8 1543.6 2474.5 1515L2468.5 1463L2455.3 1463C2446.1 1463 2442 1463.3 2442 1464.1Z" />
		<path id="Layer" class="shp0" d="M2918.7 1527.7C2911.1 1563.4 2905 1593.1 2905 1593.7C2905 1594.7 2908 1595 2916.4 1595C2926.5 1595 2927.9 1594.8 2928.4 1593.2C2928.7 1592.3 2934.8 1563.6 2942 1529.5C2949.2 1495.4 2955.4 1466.5 2955.7 1465.2C2956.2 1463 2956.2 1463 2944.3 1463L2932.4 1463L2918.7 1527.7Z" />
		<path id="Layer" class="shp0" d="M3324.6 1467.7C3325.4 1475.4 3334 1589.9 3334 1592.6L3334 1595L3346.3 1595L3358.6 1595L3381.4 1546C3394 1519 3404.5 1497.1 3404.7 1497.4C3405 1497.7 3409.9 1586.8 3410 1593.2C3410 1594.8 3411.3 1595 3422.3 1595L3434.5 1595L3467.3 1529.5C3485.3 1493.5 3500 1463.8 3500 1463.5C3500 1463.2 3494.8 1463.1 3488.4 1463.2L3476.7 1463.5L3453.2 1513.2C3440.2 1540.6 3429.5 1562.9 3429.4 1562.7C3429.3 1562.6 3428.4 1542 3427.5 1517C3426.6 1492 3425.7 1469.6 3425.4 1467.2L3424.9 1463L3412.1 1463L3399.4 1463L3376.4 1513C3354.1 1561.6 3353.5 1562.9 3352.9 1558.7C3352.5 1556.4 3351.7 1533.9 3351 1508.7L3349.7 1463L3336.9 1463L3324.1 1463L3324.6 1467.7Z" />
		<path id="Layer" class="shp0" d="M3658.6 1469.7C3657.8 1473.5 3651.7 1502.4 3645 1534C3638.3 1565.6 3632.7 1592.3 3632.4 1593.2C3631.9 1594.8 3632.9 1595 3643.9 1595L3655.8 1595L3656.4 1592.2C3656.7 1590.7 3662.8 1561.8 3670 1528C3677.1 1494.2 3683 1465.8 3683 1464.8C3683 1463.2 3681.9 1463 3671.6 1463L3660.2 1463L3658.6 1469.7Z" />
		<path id="Layer" class="shp0" d="M4065.6 1464.7C4065.3 1465.7 4059.2 1494.4 4052 1528.5C4044.8 1562.6 4038.6 1591.5 4038.3 1592.7C4037.8 1595 4037.8 1595 4049.7 1595L4061.6 1595L4075.3 1530.2C4082.9 1494.6 4089 1464.9 4089 1464.2C4089 1463.3 4086 1463 4077.6 1463C4067.5 1463 4066.1 1463.2 4065.6 1464.7Z" />
	</g>
</svg>