<svg version="1.2" baseProfile="tiny-ps" xmlns="http://www.w3.org/2000/svg" viewBox="0 0 436 399" width="436" height="399">
	<title>Nemak_WordMarkSymbolTag_Grad_RGB-ai</title>
	<defs>
		<linearGradient id="grd1" gradientUnits="userSpaceOnUse"  x1="-43.896" y1="276.561" x2="399.04" y2="-21.945">
			<stop offset="0" stop-color="#66c361"  />
			<stop offset="1" stop-color="#66c361" stop-opacity="0.1" />
		</linearGradient>
		<linearGradient id="grd2" gradientUnits="userSpaceOnUse"  x1="-4.436" y1="390.345" x2="11.731" y2="-3.857">
			<stop offset="0" stop-color="#66c361"  />
			<stop offset="0.654" stop-color="#66c361" stop-opacity="0" />
		</linearGradient>
	</defs>
	<style>
		tspan { white-space:pre }
		.shp0 { fill: url(#grd1) } 
		.shp1 { fill: #0075c9 } 
		.shp2 { fill: url(#grd2) } 
	</style>
	<g id="Layer 1">
		<g id="&lt;Group&gt;">
			<path id="&lt;Path&gt;" class="shp0" d="M421.75 8.04C416.95 -2.69 404.33 -2.01 392.66 3.04C324 32.74 73.42 239.41 10.16 339.26C5.34 346.87 4.69 353.91 10.43 360.65C17.77 369.27 31.18 384.17 43.78 389.66C50.72 392.67 65.8 397.55 68.73 392.41C176.95 202.43 349.18 33.4 396.07 16.07C401.37 14.12 405.3 15.02 406.04 19.04C406.67 22.43 423.69 12.37 421.75 8.04Z" />
			<path id="&lt;Path&gt;" class="shp1" d="M236.67 0.75C168.45 -5.77 55.06 166.09 3.47 339.25C0.27 350.01 -0.4 354.44 4.85 360.64C12.96 370.22 27.02 381.94 43.78 389.66C60.55 397.37 68.53 396.76 69.85 389.49C75.61 357.81 122.5 150.51 218.43 62.83C250.04 33.94 275.7 50.82 290.06 58.97C312.01 71.44 367.33 124.88 409.6 213.74C413.02 220.95 417.01 219.92 419.56 218.67C427.28 214.9 430.97 205.08 432.93 193.53C437.37 167.34 441.37 95.62 422.37 10.04C421.65 6.79 420.34 4.97 415.41 7.98C413.3 9.27 409.95 10.9 407.52 13.32C404.17 16.67 406.55 19.65 409.55 35.8C418.27 82.62 418.84 139.37 418.62 147.82C418.43 155.3 418.8 162.32 411.74 148.38C403.3 131.7 334.88 10.14 236.67 0.75Z" />
			<path id="&lt;Path&gt;" class="shp2" d="M236.67 0.75C168.45 -5.77 55.06 166.09 3.47 339.25C0.27 350.01 -0.4 354.44 4.85 360.64C12.96 370.22 27.02 381.94 43.78 389.66C60.55 397.37 68.53 396.76 69.85 389.49C75.61 357.81 122.5 150.51 218.43 62.83C250.04 33.94 275.7 50.82 290.06 58.97C312.01 71.44 367.33 124.88 409.6 213.74C413.02 220.95 417.01 219.92 419.56 218.67C427.28 214.9 430.97 205.08 432.93 193.53C437.37 167.34 441.37 95.62 422.37 10.04C421.65 6.79 420.34 4.97 415.41 7.98C413.3 9.27 409.95 10.9 407.52 13.32C404.17 16.67 406.55 19.65 409.55 35.8C418.27 82.62 418.84 139.37 418.62 147.82C418.43 155.3 418.8 162.32 411.74 148.38C403.3 131.7 334.88 10.14 236.67 0.75Z" />
			<g id="&lt;Group&gt;">
			</g>
		</g>
	</g>
</svg>