<svg version="1.2" baseProfile="tiny-ps" xmlns="http://www.w3.org/2000/svg" viewBox="0 0 42 13" width="42" height="13">
	<title>Layer</title>
	<style>
		tspan { white-space:pre }
		.shp0 { fill: #f8f1f1 } 
	</style>
	<g id="Layer">
		<path id="Layer" fill-rule="evenodd" class="shp0" d="M9.41 0.87C9.47 0.9 9.52 0.95 9.54 1.01C9.58 1.09 9.7 1.76 9.75 2.15C9.86 3 9.88 3.89 9.82 4.6C9.79 4.92 9.75 5.11 9.69 5.24C9.58 5.48 9.39 5.56 9.31 5.4C9.29 5.38 9.23 5.26 9.16 5.12C8.69 4.17 8.11 3.34 7.47 2.68L7.31 2.51L6.89 2.94C6.43 3.4 6.27 3.58 5.91 3.98C4.47 5.59 3.18 7.37 2.2 9.08C2.17 9.14 2.15 9.16 2.13 9.17C1.98 9.24 1.55 9.07 1.21 8.81C1 8.65 0.82 8.46 0.78 8.37C0.75 8.31 0.75 8.21 0.78 8.1C0.84 7.86 1.04 7.24 1.2 6.81C1.97 4.73 3.11 2.76 4.15 1.7C4.61 1.23 5 0.97 5.38 0.88C5.48 0.86 5.71 0.86 5.85 0.88C6.44 0.99 6.98 1.25 7.54 1.71L7.59 1.75L7.69 1.68C7.87 1.54 8.3 1.26 8.47 1.16C8.75 0.99 8.93 0.9 9.08 0.86C9.18 0.83 9.34 0.83 9.41 0.87ZM9.12 1.18C8.97 1.16 8.52 1.45 7.99 1.9L7.87 2L8.03 2.17C8.51 2.66 8.97 3.29 9.32 3.94C9.41 4.11 9.44 4.15 9.45 4.13C9.49 4.07 9.47 3.3 9.41 2.66C9.38 2.2 9.31 1.74 9.24 1.42C9.2 1.24 9.2 1.22 9.17 1.2C9.16 1.19 9.14 1.18 9.12 1.18ZM5.88 1.86C5.65 1.91 5.46 2.02 5.21 2.27C4.72 2.74 4.25 3.42 3.81 4.28C3.67 4.54 3.44 5.06 3.36 5.25L3.34 5.3L3.39 5.26C3.42 5.23 3.52 5.13 3.63 5.04C4.53 4.19 5.72 3.18 6.69 2.42C6.83 2.31 6.95 2.22 6.95 2.21C6.95 2.2 6.81 2.11 6.67 2.03C6.53 1.96 6.42 1.91 6.3 1.87C6.19 1.84 5.99 1.83 5.88 1.86Z" />
		<path id="Layer" class="shp0" d="M37.42 1.19C37.41 1.21 35.8 8.38 35.8 8.38C35.8 8.39 36.07 8.39 36.39 8.39L36.98 8.39L36.99 8.34C37 8.32 37.12 7.79 37.26 7.17C37.41 6.53 37.52 6.04 37.53 6.05C37.53 6.05 37.91 6.58 38.37 7.22L39.19 8.38L39.83 8.39C40.18 8.39 40.46 8.38 40.46 8.38C40.46 8.38 40.08 7.84 39.62 7.18C39.16 6.53 38.73 5.92 38.67 5.82L38.55 5.66L39.86 4.39C40.59 3.69 41.18 3.11 41.19 3.1C41.2 3.09 41.16 3.08 40.55 3.08L39.9 3.08L38.82 4.09C38.23 4.64 37.74 5.09 37.74 5.09C37.74 5.08 37.93 4.22 38.17 3.17C38.4 2.12 38.6 1.24 38.6 1.22L38.61 1.18L38.02 1.18C37.55 1.18 37.42 1.18 37.42 1.19Z" />
		<path id="Layer" class="shp0" d="M11.79 4.76C11.38 6.71 11.03 8.31 11.03 8.32C11.03 8.34 11.06 8.34 11.69 8.34C12.31 8.34 12.35 8.34 12.35 8.32C12.36 8.31 12.61 7.07 12.92 5.57C13.22 4.07 13.48 2.84 13.48 2.84C13.48 2.85 13.76 4.08 14.1 5.57C14.44 7.07 14.73 8.31 14.73 8.32C14.73 8.34 14.78 8.34 15.41 8.34C16.05 8.34 16.1 8.34 16.1 8.32C16.11 8.28 17.72 1.24 17.72 1.23C17.72 1.23 17.54 1.22 17.08 1.22L16.45 1.22L15.9 3.82C15.6 5.25 15.35 6.41 15.34 6.41C15.34 6.41 15.08 5.25 14.76 3.82L14.18 1.22L13.37 1.22L12.55 1.22L11.79 4.76Z" />
		<path id="Layer" class="shp0" d="M28.5 3.03C28.1 3.06 27.79 3.12 27.48 3.22C27.34 3.27 27.12 3.37 27.04 3.43L26.99 3.45L26.91 3.4C26.66 3.23 26.34 3.12 25.92 3.06C25.74 3.04 25.24 3.03 25.01 3.04C24.5 3.08 23.99 3.19 23.66 3.33C23.53 3.39 23.42 3.46 23.41 3.49C23.4 3.5 23.17 4.59 22.89 5.91C22.61 7.23 22.38 8.32 22.37 8.33L22.37 8.36L23 8.36L23.63 8.36L23.76 7.71C23.84 7.35 24.04 6.4 24.21 5.59L24.52 4.13L24.66 4.1C24.92 4.05 25.11 4.03 25.34 4.03C25.58 4.03 25.69 4.04 25.84 4.09C26.09 4.17 26.25 4.33 26.29 4.54C26.32 4.66 26.31 4.73 26.19 5.34C25.91 6.89 25.65 8.24 25.64 8.29C25.63 8.32 25.62 8.35 25.62 8.35C25.62 8.35 25.91 8.36 26.25 8.36L26.88 8.36L27.32 6.29C27.55 5.16 27.75 4.23 27.76 4.22C27.77 4.2 27.97 4.14 28.14 4.11C28.49 4.04 28.82 4.04 29.04 4.11C29.16 4.16 29.25 4.21 29.33 4.29C29.45 4.4 29.5 4.53 29.5 4.69C29.5 4.76 29.46 4.98 29 7.43C28.91 7.93 28.83 8.34 28.83 8.35C28.83 8.35 29 8.36 29.45 8.36C29.81 8.36 30.07 8.35 30.07 8.35C30.07 8.34 30.22 7.52 30.4 6.52L30.74 4.7L30.74 4.55C30.74 4.32 30.7 4.15 30.6 3.96C30.35 3.46 29.83 3.14 29.11 3.05C28.99 3.03 28.61 3.02 28.5 3.03Z" />
		<path id="Layer" fill-rule="evenodd" class="shp0" d="M20.69 3.04C20.93 3.07 21.19 3.14 21.41 3.23C21.9 3.43 22.23 3.77 22.34 4.2C22.37 4.31 22.37 4.35 22.37 4.51C22.38 4.71 22.37 4.83 22.34 4.97C22.18 5.66 21.63 6.06 20.71 6.13C20.64 6.14 20.31 6.14 19.99 6.14C19.66 6.14 19.23 6.15 19.04 6.15L18.7 6.16L18.7 6.28C18.7 6.41 18.71 6.5 18.75 6.62C18.89 7.03 19.29 7.36 19.78 7.43C19.97 7.46 20.34 7.44 20.6 7.38C20.82 7.33 21.06 7.23 21.17 7.14C21.2 7.12 21.23 7.11 21.24 7.11C21.26 7.13 21.72 7.79 21.72 7.8C21.73 7.82 21.66 7.89 21.58 7.95C21.28 8.17 20.78 8.34 20.24 8.39C20.05 8.41 19.69 8.41 19.53 8.4C18.94 8.34 18.49 8.14 18.13 7.78C17.91 7.55 17.76 7.29 17.66 6.97C17.59 6.74 17.56 6.55 17.56 6.24C17.57 5.47 17.75 4.77 18.09 4.24C18.28 3.95 18.58 3.65 18.88 3.47C19.14 3.3 19.44 3.18 19.77 3.11C19.88 3.08 20.1 3.05 20.19 3.04C20.3 3.03 20.6 3.03 20.69 3.04ZM19.99 4.03C19.46 4.15 19.07 4.52 18.89 5.08C18.86 5.15 18.84 5.22 18.84 5.23C18.84 5.26 19.04 5.26 19.81 5.26C20.51 5.25 20.67 5.24 20.81 5.21C21.18 5.12 21.43 4.79 21.36 4.48C21.3 4.21 21.06 4.04 20.67 4C20.45 3.97 20.17 3.99 19.99 4.03Z" />
		<path id="Layer" fill-rule="evenodd" class="shp0" d="M34.18 3.04C34.42 3.07 34.67 3.14 34.86 3.24C35.29 3.45 35.55 3.79 35.64 4.28C35.67 4.43 35.66 4.86 35.63 5.04C35.56 5.48 34.93 8.33 34.9 8.35C34.87 8.36 34.49 8.42 34.23 8.44C33.78 8.48 33.11 8.49 32.84 8.45C32.37 8.4 32.03 8.29 31.74 8.13C31.26 7.85 31.03 7.43 31.05 6.88C31.06 6.58 31.13 6.35 31.28 6.12C31.61 5.61 32.24 5.31 33.17 5.21C33.45 5.18 34.29 5.19 34.45 5.22C34.47 5.23 34.47 5.22 34.49 5.16C34.55 4.95 34.57 4.7 34.53 4.53C34.45 4.15 34.17 3.96 33.68 3.96C33.1 3.96 32.47 4.21 31.98 4.63C31.94 4.67 31.92 4.68 31.91 4.67C31.9 4.65 31.65 3.83 31.65 3.82C31.66 3.8 31.83 3.67 31.99 3.56C32.16 3.45 32.46 3.3 32.64 3.23C32.87 3.15 33.17 3.08 33.41 3.05C33.47 3.05 33.54 3.04 33.55 3.04C33.63 3.03 34.09 3.03 34.18 3.04ZM33.34 6.12C32.96 6.15 32.63 6.22 32.44 6.31C32.17 6.45 32.03 6.69 32.08 6.93C32.12 7.15 32.3 7.34 32.56 7.43C32.87 7.53 33.59 7.54 33.95 7.45C33.99 7.43 34.02 7.42 34.03 7.42C34.03 7.42 34.29 6.15 34.28 6.15C34.28 6.15 34.22 6.14 34.15 6.13C33.97 6.12 33.51 6.11 33.34 6.12Z" />
		<path id="Layer" class="shp0" d="M27.44 10.32C27.44 10.34 27.35 10.74 27.25 11.23C27.15 11.72 27.06 12.12 27.06 12.13C27.06 12.14 27.08 12.14 27.18 12.14L27.29 12.14L27.31 12.06C27.47 11.3 27.48 11.25 27.55 11.16C27.57 11.13 27.62 11.09 27.66 11.06C27.81 10.96 28.02 10.96 28.08 11.06C28.11 11.12 28.11 11.19 28 11.68C27.95 11.93 27.91 12.14 27.91 12.14C27.91 12.14 27.96 12.14 28.03 12.14C28.09 12.14 28.15 12.14 28.15 12.14C28.15 12.14 28.19 11.93 28.25 11.68C28.34 11.25 28.34 11.22 28.34 11.1C28.34 11 28.34 10.98 28.32 10.94C28.29 10.88 28.24 10.83 28.18 10.8C28.12 10.78 27.93 10.77 27.85 10.79C27.77 10.8 27.68 10.85 27.6 10.91C27.57 10.94 27.54 10.96 27.54 10.95C27.56 10.89 27.68 10.32 27.68 10.31C27.68 10.3 27.62 10.3 27.56 10.3C27.45 10.3 27.45 10.3 27.44 10.32Z" />
		<path id="Layer" class="shp0" d="M34.73 10.31C34.73 10.32 34.65 10.72 34.54 11.21C34.44 11.7 34.36 12.11 34.35 12.12L34.35 12.14L34.47 12.14L34.58 12.14L34.66 11.77C34.75 11.35 34.76 11.31 34.81 11.22C34.9 11.03 35.14 10.93 35.31 11.01C35.37 11.04 35.4 11.1 35.39 11.19C35.38 11.23 35.34 11.45 35.29 11.69C35.24 11.93 35.2 12.13 35.2 12.13C35.2 12.14 35.24 12.14 35.32 12.14L35.44 12.14L35.53 11.67C35.59 11.42 35.63 11.18 35.64 11.14C35.64 11.11 35.64 11.05 35.63 11.02C35.6 10.85 35.5 10.78 35.28 10.78C35.11 10.78 35 10.82 34.9 10.91C34.86 10.94 34.84 10.96 34.83 10.96C34.83 10.95 34.94 10.45 34.97 10.32C34.97 10.3 34.97 10.3 34.85 10.3C34.77 10.3 34.74 10.3 34.73 10.31Z" />
		<path id="Layer" class="shp0" d="M11.96 10.33C11.95 10.36 11.59 12.11 11.59 12.13C11.59 12.14 11.61 12.14 11.72 12.14L11.84 12.14L12 11.39C12.09 10.98 12.17 10.57 12.19 10.47L12.23 10.31L12.1 10.31C11.98 10.31 11.97 10.31 11.96 10.33Z" />
		<path id="Layer" class="shp0" d="M20.15 10.32C20.15 10.32 20.14 10.37 20.13 10.43C20.11 10.5 20.1 10.55 20.1 10.56C20.1 10.57 20.13 10.57 20.22 10.57L20.34 10.57L20.36 10.47C20.37 10.41 20.38 10.35 20.39 10.34L20.39 10.31L20.27 10.31C20.21 10.31 20.15 10.31 20.15 10.32Z" />
		<path id="Layer" class="shp0" d="M24.11 10.31C24.11 10.31 24.02 10.73 23.92 11.23L23.72 12.14L24.31 12.14L24.9 12.14L24.92 12.05C24.93 12 24.94 11.95 24.94 11.94C24.94 11.92 24.92 11.92 24.49 11.92L24.03 11.92L24.03 11.89C24.04 11.87 24.11 11.51 24.2 11.1C24.29 10.68 24.36 10.33 24.36 10.32C24.36 10.31 24.32 10.31 24.24 10.31C24.17 10.31 24.11 10.31 24.11 10.31Z" />
		<path id="Layer" class="shp0" d="M25.48 10.33C25.48 10.34 25.46 10.4 25.45 10.46L25.43 10.57L25.54 10.57L25.66 10.57L25.68 10.48C25.69 10.43 25.71 10.37 25.71 10.35L25.72 10.31L25.6 10.31C25.5 10.31 25.48 10.31 25.48 10.33Z" />
		<path id="Layer" class="shp0" d="M32.75 10.42C32.74 10.48 32.72 10.54 32.72 10.55C32.71 10.57 32.71 10.57 32.83 10.57L32.95 10.57L32.98 10.46C32.99 10.4 33 10.35 33 10.33C33.01 10.31 33.01 10.31 32.89 10.31L32.77 10.31L32.75 10.42Z" />
		<path id="Layer" class="shp0" d="M36.81 10.42C36.8 10.48 36.79 10.54 36.79 10.55C36.78 10.57 36.78 10.57 36.9 10.57L37.02 10.57L37.04 10.46C37.05 10.4 37.07 10.35 37.07 10.33C37.08 10.31 37.08 10.31 36.96 10.31L36.84 10.31L36.81 10.42Z" />
		<path id="Layer" class="shp0" d="M19.47 10.45C19.47 10.47 19.45 10.54 19.43 10.62C19.42 10.71 19.4 10.78 19.4 10.79C19.39 10.8 19.38 10.81 19.3 10.81L19.21 10.81L19.2 10.89C19.17 11.01 19.17 11 19.27 11C19.35 11 19.35 11 19.35 11.02C19.35 11.03 19.3 11.24 19.25 11.48C19.15 11.94 19.15 12 19.18 12.08C19.21 12.14 19.26 12.16 19.4 12.16C19.55 12.16 19.55 12.16 19.57 12.1C19.58 12.07 19.58 12.03 19.59 12L19.59 11.96L19.52 11.96C19.46 11.96 19.44 11.96 19.42 11.94C19.41 11.93 19.4 11.91 19.4 11.9C19.4 11.89 19.44 11.69 19.5 11.44L19.59 11L19.69 11L19.8 11L19.82 10.9L19.84 10.81L19.74 10.81C19.68 10.81 19.63 10.8 19.63 10.8C19.63 10.79 19.65 10.72 19.67 10.63C19.69 10.54 19.7 10.46 19.7 10.45C19.7 10.43 19.68 10.43 19.59 10.43C19.48 10.43 19.47 10.43 19.47 10.45Z" />
		<path id="Layer" class="shp0" d="M28.86 10.44C28.86 10.46 28.79 10.79 28.79 10.8C28.79 10.8 28.75 10.81 28.7 10.81C28.61 10.81 28.61 10.81 28.6 10.83C28.58 10.94 28.57 10.98 28.57 10.99C28.57 10.99 28.61 11 28.66 11L28.74 11L28.65 11.44C28.55 11.93 28.54 12.02 28.57 12.08C28.61 12.15 28.63 12.16 28.8 12.16C28.91 12.16 28.94 12.15 28.95 12.14C28.95 12.14 28.96 12.1 28.97 12.07C28.98 12.03 28.98 12 28.99 11.98C28.99 11.96 28.99 11.96 28.92 11.96C28.83 11.96 28.8 11.94 28.8 11.9C28.8 11.89 28.84 11.68 28.89 11.44L28.98 11L29.09 11L29.19 10.99L29.21 10.91C29.22 10.87 29.23 10.83 29.23 10.82C29.23 10.81 29.2 10.81 29.13 10.81L29.02 10.81L29.06 10.63C29.08 10.53 29.1 10.44 29.1 10.44C29.1 10.43 28.87 10.43 28.86 10.44Z" />
		<path id="Layer" class="shp0" d="M36.12 10.59C36.11 10.67 36.09 10.75 36.08 10.77L36.08 10.8L35.99 10.8L35.89 10.81L35.88 10.87C35.88 10.91 35.87 10.95 35.87 10.97L35.86 11L35.95 11C35.99 11 36.03 11 36.03 11.01C36.03 11.01 35.99 11.22 35.94 11.47C35.83 11.96 35.83 12.01 35.87 12.09C35.9 12.15 35.95 12.17 36.1 12.16C36.17 12.16 36.23 12.15 36.24 12.15C36.24 12.15 36.25 12.1 36.26 12.05L36.28 11.96L36.21 11.96C36.17 11.96 36.13 11.95 36.12 11.95C36.08 11.93 36.08 11.92 36.17 11.47C36.22 11.24 36.26 11.03 36.27 11.02C36.27 11 36.28 11 36.38 11C36.49 11 36.48 11.01 36.5 10.9C36.51 10.87 36.52 10.83 36.52 10.82C36.52 10.81 36.51 10.81 36.42 10.81C36.32 10.81 36.31 10.8 36.32 10.79C36.32 10.78 36.34 10.7 36.35 10.62C36.37 10.54 36.39 10.46 36.39 10.45C36.39 10.43 36.38 10.43 36.27 10.43L36.16 10.43L36.12 10.59Z" />
		<path id="Layer" fill-rule="evenodd" class="shp0" d="M16.18 10.89C16.29 10.99 16.34 11.13 16.32 11.33C16.29 11.58 16.19 11.81 16.04 11.97C15.95 12.07 15.87 12.12 15.75 12.16C15.68 12.18 15.66 12.19 15.52 12.19C15.4 12.19 15.36 12.18 15.31 12.17C15.09 12.09 14.99 11.87 15.04 11.56C15.08 11.31 15.17 11.13 15.33 10.97C15.43 10.88 15.56 10.8 15.67 10.78C15.88 10.74 16.07 10.78 16.18 10.89ZM15.7 10.98C15.59 11 15.51 11.06 15.44 11.15C15.3 11.34 15.23 11.65 15.29 11.82C15.34 11.95 15.43 12 15.59 11.99C15.74 11.98 15.83 11.93 15.91 11.8C16.02 11.64 16.07 11.47 16.07 11.29C16.07 11.19 16.07 11.17 16.05 11.12C16.02 11.06 15.99 11.03 15.92 11C15.87 10.98 15.76 10.97 15.7 10.98Z" />
		<path id="Layer" class="shp0" d="M12.98 10.79C12.9 10.82 12.81 10.86 12.74 10.92C12.7 10.94 12.67 10.96 12.67 10.96C12.67 10.95 12.68 10.92 12.69 10.88C12.69 10.85 12.7 10.82 12.7 10.81C12.7 10.81 12.65 10.81 12.59 10.81C12.49 10.81 12.48 10.81 12.48 10.82C12.47 10.83 12.41 11.12 12.34 11.47C12.27 11.81 12.21 12.11 12.2 12.12L12.2 12.14L12.32 12.14L12.43 12.14L12.5 11.81C12.6 11.36 12.61 11.31 12.64 11.24C12.68 11.16 12.77 11.07 12.86 11.03C12.91 11 12.94 10.99 13.01 10.99C13.09 10.99 13.11 10.99 13.15 11.01C13.18 11.02 13.2 11.05 13.22 11.07C13.25 11.14 13.24 11.22 13.14 11.7C13.09 11.93 13.05 12.13 13.05 12.13C13.05 12.14 13.1 12.14 13.17 12.14L13.29 12.14L13.38 11.69C13.43 11.45 13.48 11.21 13.48 11.17C13.51 10.98 13.45 10.85 13.31 10.8C13.25 10.78 13.05 10.77 12.98 10.79Z" />
		<path id="Layer" class="shp0" d="M14.42 10.79C14.34 10.82 14.25 10.86 14.18 10.92C14.14 10.94 14.11 10.96 14.11 10.96C14.11 10.95 14.12 10.92 14.13 10.88C14.14 10.85 14.14 10.82 14.14 10.81C14.14 10.81 14.09 10.81 14.03 10.81C13.94 10.81 13.92 10.81 13.92 10.82C13.92 10.83 13.85 11.12 13.78 11.47C13.71 11.81 13.65 12.11 13.64 12.12L13.64 12.14L13.76 12.14L13.88 12.14L13.94 11.81C14.04 11.36 14.05 11.31 14.08 11.24C14.12 11.16 14.21 11.07 14.3 11.03C14.36 11 14.38 10.99 14.46 10.99C14.54 10.99 14.55 10.99 14.59 11.01C14.62 11.02 14.65 11.05 14.66 11.07C14.7 11.14 14.69 11.22 14.58 11.7C14.53 11.93 14.49 12.13 14.49 12.13C14.49 12.14 14.55 12.14 14.61 12.14L14.73 12.14L14.82 11.69C14.87 11.45 14.92 11.21 14.93 11.17C14.95 10.98 14.89 10.85 14.75 10.8C14.69 10.78 14.5 10.77 14.42 10.79Z" />
		<path id="Layer" fill-rule="evenodd" class="shp0" d="M18.48 10.78C18.61 10.78 18.68 10.79 18.76 10.82C18.84 10.85 18.87 10.88 18.91 10.94C18.95 11.02 18.94 11.07 18.85 11.54C18.77 11.87 18.76 11.95 18.77 11.97C18.78 11.98 18.8 11.98 18.84 11.98L18.9 11.98L18.89 12.04C18.88 12.08 18.87 12.12 18.87 12.13C18.86 12.16 18.81 12.17 18.71 12.17C18.6 12.17 18.55 12.13 18.53 12.04L18.53 11.99L18.47 12.03C18.27 12.18 17.99 12.24 17.83 12.15C17.73 12.1 17.67 11.99 17.67 11.88C17.67 11.72 17.76 11.56 17.9 11.47C18 11.41 18.09 11.39 18.34 11.35C18.51 11.33 18.59 11.32 18.61 11.31C18.68 11.27 18.72 11.12 18.68 11.06C18.67 11.04 18.63 11.02 18.6 11C18.55 10.98 18.53 10.97 18.44 10.97C18.35 10.97 18.32 10.98 18.28 11C18.2 11.03 18.14 11.09 18.11 11.16L18.08 11.22L17.87 11.22L17.87 11.19C17.9 11.09 17.96 10.97 18.03 10.92C18.08 10.87 18.19 10.82 18.28 10.8C18.33 10.78 18.39 10.78 18.48 10.78ZM18.54 11.51C18.5 11.52 18.41 11.53 18.33 11.55C18.15 11.57 18.07 11.59 18.01 11.64C17.96 11.69 17.92 11.77 17.92 11.83C17.92 11.99 18.13 12.04 18.36 11.93C18.49 11.86 18.56 11.77 18.6 11.59C18.61 11.54 18.62 11.5 18.62 11.49C18.62 11.48 18.6 11.48 18.54 11.51Z" />
		<path id="Layer" fill-rule="evenodd" class="shp0" d="M22.57 10.79C22.71 10.83 22.83 10.92 22.87 11.04C22.91 11.14 22.91 11.32 22.87 11.51L22.86 11.56L21.89 11.56L21.88 11.59C21.87 11.7 21.89 11.82 21.93 11.89C21.98 11.97 22.12 12.01 22.24 11.98C22.37 11.95 22.48 11.87 22.54 11.77L22.57 11.72L22.69 11.72C22.81 11.72 22.81 11.72 22.77 11.79C22.71 11.92 22.58 12.05 22.47 12.1C22.36 12.16 22.28 12.18 22.15 12.19C21.98 12.2 21.87 12.17 21.78 12.08C21.63 11.94 21.59 11.73 21.67 11.44C21.75 11.11 21.99 10.85 22.27 10.79C22.36 10.77 22.5 10.77 22.57 10.79ZM22.18 11.04C22.08 11.09 21.97 11.23 21.94 11.34L21.94 11.36L22.66 11.36L22.66 11.26C22.65 11.18 22.65 11.15 22.63 11.11C22.6 11.06 22.56 11.02 22.51 11C22.42 10.96 22.28 10.98 22.18 11.04Z" />
		<path id="Layer" fill-rule="evenodd" class="shp0" d="M26.49 10.79C26.59 10.8 26.65 10.83 26.71 10.9C26.74 10.93 26.77 10.96 26.77 10.96C26.77 10.96 26.78 10.93 26.78 10.89L26.8 10.82L26.91 10.82C27.01 10.82 27.02 10.82 27.01 10.84C27.01 10.85 26.95 11.14 26.88 11.48C26.8 11.83 26.73 12.14 26.72 12.19C26.64 12.46 26.48 12.62 26.24 12.68C26.15 12.71 25.96 12.71 25.87 12.7C25.74 12.67 25.64 12.61 25.6 12.52C25.59 12.49 25.58 12.46 25.58 12.39L25.57 12.3L25.81 12.3L25.81 12.34C25.81 12.39 25.85 12.45 25.89 12.48C25.99 12.53 26.15 12.52 26.27 12.47C26.4 12.41 26.47 12.29 26.54 12.02L26.55 11.99L26.51 12.01C26.39 12.12 26.3 12.15 26.15 12.16C25.89 12.17 25.71 12.04 25.68 11.81C25.67 11.6 25.73 11.32 25.84 11.14C25.95 10.96 26.15 10.81 26.32 10.79C26.4 10.77 26.41 10.77 26.49 10.79ZM26.21 11.04C26.06 11.13 25.94 11.38 25.93 11.64C25.92 11.75 25.93 11.81 25.97 11.87C26.07 12.02 26.34 11.99 26.5 11.82C26.64 11.65 26.73 11.3 26.66 11.14C26.63 11.08 26.57 11.02 26.5 11C26.41 10.98 26.3 10.99 26.21 11.04Z" />
		<path id="Layer" fill-rule="evenodd" class="shp0" d="M31.95 10.79C32.08 10.82 32.19 10.9 32.25 11C32.29 11.1 32.3 11.21 32.28 11.37C32.27 11.44 32.26 11.5 32.26 11.52L32.25 11.55L31.77 11.55C31.4 11.56 31.29 11.56 31.28 11.57C31.28 11.57 31.27 11.62 31.27 11.67C31.27 11.87 31.35 11.97 31.51 11.99C31.68 12 31.86 11.91 31.94 11.76L31.97 11.72L32.08 11.72C32.21 11.72 32.21 11.72 32.16 11.8C32.06 11.98 31.89 12.12 31.71 12.17C31.62 12.19 31.46 12.2 31.38 12.18C31.2 12.15 31.07 12.01 31.03 11.83C31.02 11.74 31.03 11.57 31.06 11.45C31.11 11.26 31.22 11.06 31.35 10.96C31.45 10.87 31.53 10.83 31.65 10.8C31.73 10.77 31.87 10.77 31.95 10.79ZM31.67 10.99C31.55 11.03 31.44 11.13 31.37 11.25C31.35 11.3 31.33 11.34 31.33 11.35C31.33 11.36 31.39 11.36 31.69 11.36L32.05 11.36L32.05 11.29C32.06 11.16 32.01 11.06 31.92 11.02C31.86 10.98 31.75 10.97 31.67 10.99Z" />
		<path id="Layer" fill-rule="evenodd" class="shp0" d="M33.87 10.81C33.93 10.83 33.98 10.87 34.03 10.93L34.06 10.97L34.07 10.89L34.09 10.82L34.19 10.82C34.28 10.82 34.3 10.82 34.3 10.83C34.3 10.86 34.05 12.03 34.03 12.13C33.98 12.31 33.91 12.44 33.8 12.54C33.72 12.61 33.65 12.65 33.54 12.68C33.43 12.71 33.19 12.71 33.1 12.68C33.01 12.65 32.94 12.6 32.91 12.55C32.87 12.5 32.85 12.39 32.86 12.34L32.87 12.3L33.1 12.3L33.1 12.35C33.11 12.37 33.12 12.41 33.13 12.43C33.21 12.56 33.53 12.54 33.67 12.4C33.73 12.33 33.79 12.21 33.82 12.04L33.84 11.98L33.79 12.03C33.62 12.17 33.35 12.21 33.16 12.1C33.09 12.07 33.02 11.99 33 11.92C32.92 11.7 33.01 11.28 33.19 11.06C33.31 10.91 33.46 10.81 33.62 10.79C33.69 10.77 33.8 10.78 33.87 10.81ZM33.45 11.08C33.4 11.12 33.32 11.24 33.29 11.32C33.21 11.52 33.19 11.73 33.24 11.82C33.26 11.89 33.29 11.92 33.34 11.94C33.46 12 33.65 11.96 33.77 11.84C33.93 11.67 34.02 11.32 33.95 11.14C33.92 11.08 33.85 11.02 33.8 11C33.68 10.97 33.55 11 33.45 11.08Z" />
		<path id="Layer" class="shp0" d="M37.8 10.79C37.71 10.81 37.63 10.86 37.55 10.92C37.51 10.94 37.48 10.96 37.48 10.96C37.48 10.95 37.49 10.92 37.5 10.88C37.51 10.85 37.51 10.82 37.51 10.81C37.51 10.81 37.47 10.81 37.41 10.81C37.31 10.81 37.3 10.81 37.29 10.82C37.28 10.84 37.01 12.13 37.01 12.14C37.01 12.14 37.07 12.14 37.13 12.14L37.25 12.14L37.33 11.76C37.41 11.35 37.43 11.3 37.46 11.23C37.5 11.16 37.59 11.07 37.67 11.03C37.73 11 37.75 10.99 37.82 10.99C37.93 10.98 37.99 11 38.02 11.06C38.07 11.13 38.06 11.2 37.96 11.7C37.91 11.93 37.87 12.13 37.87 12.13C37.87 12.14 37.92 12.14 37.98 12.14L38.1 12.14L38.19 11.7C38.24 11.46 38.29 11.23 38.3 11.17C38.32 10.96 38.25 10.83 38.09 10.79C38.02 10.77 37.87 10.77 37.8 10.79Z" />
		<path id="Layer" fill-rule="evenodd" class="shp0" d="M39.32 10.8C39.39 10.82 39.45 10.86 39.49 10.92L39.52 10.97L39.53 10.92C39.54 10.89 39.55 10.86 39.55 10.84L39.56 10.82L39.66 10.82C39.74 10.82 39.77 10.82 39.77 10.83C39.77 10.85 39.5 12.13 39.48 12.18C39.39 12.45 39.24 12.62 39 12.68C38.92 12.71 38.72 12.71 38.65 12.7C38.5 12.67 38.4 12.61 38.36 12.52C38.34 12.47 38.32 12.37 38.33 12.33L38.34 12.3L38.56 12.3L38.57 12.35C38.58 12.44 38.65 12.5 38.77 12.51C38.91 12.53 39.06 12.48 39.14 12.39C39.2 12.32 39.24 12.24 39.28 12.09L39.31 11.98L39.26 12.02C39.13 12.14 38.93 12.19 38.75 12.15C38.64 12.13 38.53 12.04 38.48 11.95C38.41 11.81 38.43 11.56 38.52 11.31C38.61 11.04 38.85 10.82 39.08 10.79C39.16 10.77 39.26 10.78 39.32 10.8ZM39.07 11C38.88 11.05 38.75 11.23 38.7 11.54C38.67 11.66 38.67 11.7 38.69 11.78C38.73 11.92 38.84 11.99 39 11.96C39.19 11.93 39.33 11.77 39.4 11.53C39.43 11.42 39.45 11.25 39.43 11.18C39.41 11.12 39.36 11.06 39.31 11.02C39.25 10.99 39.15 10.98 39.07 11Z" />
		<path id="Layer" class="shp0" d="M16.54 10.81C16.54 10.82 16.58 11.12 16.64 11.48L16.74 12.14L16.87 12.14L16.99 12.14L17.35 11.53C17.54 11.2 17.72 10.9 17.74 10.86L17.77 10.81L17.64 10.81L17.51 10.81L17.22 11.33C16.96 11.82 16.93 11.86 16.93 11.83C16.92 11.81 16.81 10.85 16.81 10.82C16.81 10.81 16.76 10.81 16.67 10.81C16.6 10.81 16.54 10.81 16.54 10.81Z" />
		<path id="Layer" class="shp0" d="M20.05 10.82C20.05 10.83 19.8 12 19.78 12.11L19.77 12.14L19.89 12.14L20.01 12.14L20.14 11.5C20.22 11.15 20.28 10.85 20.28 10.83L20.29 10.81L20.17 10.81C20.09 10.81 20.05 10.81 20.05 10.82Z" />
		<path id="Layer" class="shp0" d="M20.46 10.82C20.46 10.82 20.51 11.12 20.56 11.47C20.62 11.83 20.66 12.12 20.66 12.13C20.66 12.14 20.7 12.14 20.79 12.14L20.92 12.14L21.28 11.52C21.48 11.17 21.66 10.87 21.67 10.85L21.7 10.81L21.57 10.81L21.44 10.81L21.15 11.33C20.99 11.62 20.86 11.86 20.85 11.86C20.85 11.86 20.82 11.62 20.79 11.33L20.73 10.81L20.6 10.81C20.51 10.81 20.46 10.81 20.46 10.82Z" />
		<path id="Layer" class="shp0" d="M25.24 11.46C25.16 11.82 25.1 12.12 25.1 12.13C25.1 12.14 25.13 12.14 25.22 12.14C25.32 12.14 25.33 12.14 25.34 12.12C25.34 12.11 25.4 11.82 25.47 11.48C25.55 11.13 25.61 10.84 25.61 10.83C25.62 10.81 25.62 10.81 25.5 10.81L25.38 10.81L25.24 11.46Z" />
		<path id="Layer" class="shp0" d="M29.31 10.85C29.31 10.93 29.4 12.09 29.4 12.12L29.4 12.14L29.52 12.14L29.65 12.14L29.87 11.65C30 11.37 30.11 11.15 30.11 11.15C30.11 11.16 30.16 12.06 30.16 12.12C30.16 12.14 30.17 12.14 30.28 12.14L30.41 12.14L30.74 11.48C30.92 11.11 31.06 10.81 31.06 10.81C31.06 10.81 31.01 10.81 30.95 10.81L30.83 10.81L30.59 11.31C30.46 11.59 30.36 11.82 30.36 11.82C30.35 11.81 30.35 11.61 30.34 11.35C30.33 11.1 30.32 10.87 30.32 10.85L30.31 10.81L30.18 10.81L30.06 10.81L29.82 11.31C29.6 11.8 29.6 11.82 29.59 11.77C29.59 11.75 29.58 11.52 29.57 11.27L29.56 10.81L29.43 10.81L29.3 10.81L29.31 10.85Z" />
		<path id="Layer" class="shp0" d="M32.65 10.87C32.64 10.91 32.58 11.21 32.52 11.52C32.45 11.84 32.39 12.11 32.39 12.12C32.38 12.14 32.39 12.14 32.5 12.14L32.62 12.14L32.63 12.11C32.63 12.1 32.69 11.81 32.77 11.46C32.84 11.12 32.9 10.83 32.9 10.82C32.9 10.81 32.89 10.81 32.78 10.81L32.67 10.81L32.65 10.87Z" />
		<path id="Layer" class="shp0" d="M36.73 10.82C36.73 10.83 36.67 11.12 36.59 11.47C36.52 11.81 36.46 12.11 36.46 12.12C36.45 12.14 36.45 12.14 36.57 12.14L36.69 12.14L36.83 11.49C36.9 11.13 36.96 10.83 36.96 10.82C36.96 10.81 36.93 10.81 36.85 10.81C36.75 10.81 36.73 10.81 36.73 10.82Z" />
	</g>
</svg>