<?xml version="1.0" encoding="utf-8"?>
<!-- Generator: Adobe Illustrator 16.0.0, SVG Export Plug-In . SVG Version: 6.00 Build 0)  -->
<!DOCTYPE svg PUBLIC "-//W3C//DTD SVG 1.1//EN" "http://www.w3.org/Graphics/SVG/1.1/DTD/svg11.dtd">
<svg version="1.1" id="Layer_1" xmlns="http://www.w3.org/2000/svg" xmlns:xlink="http://www.w3.org/1999/xlink" x="0px" y="0px"
	 width="283.579px" height="298px" viewBox="0 0 283.579 298" enable-background="new 0 0 283.579 298" xml:space="preserve">
<radialGradient id="SVGID_1_" cx="141.4414" cy="160.75" r="133.2483" gradientUnits="userSpaceOnUse">
	<stop  offset="0.5538" style="stop-color:#A2A3A5"/>
	<stop  offset="0.6285" style="stop-color:#BABABB;stop-opacity:0.8324"/>
	<stop  offset="0.7262" style="stop-color:#D5D4D4;stop-opacity:0.6136"/>
	<stop  offset="0.8222" style="stop-color:#EAE9E9;stop-opacity:0.3985"/>
	<stop  offset="0.9147" style="stop-color:#F8F7F7;stop-opacity:0.1911"/>
	<stop  offset="1" style="stop-color:#FFFFFF;stop-opacity:0"/>
</radialGradient>
<path fill="url(#SVGID_1_)" d="M8.195,160.75c0-73.588,59.659-133.25,133.25-133.25s133.244,59.662,133.244,133.25
	c0,73.591-59.653,133.25-133.244,133.25S8.195,234.34,8.195,160.75z"/>
<g>
	<path fill="#0075C9" d="M42.709,136.531c0-55.109,44.671-99.779,99.779-99.779c55.109,0,99.78,44.67,99.78,99.779
		c0,55.103-44.671,99.778-99.78,99.778C87.38,236.31,42.709,191.634,42.709,136.531z"/>
	<linearGradient id="SVGID_2_" gradientUnits="userSpaceOnUse" x1="211.1729" y1="115.3706" x2="-101.489" y2="211.6923">
		<stop  offset="0" style="stop-color:#6CC04A"/>
		<stop  offset="0.6541" style="stop-color:#6CC04A;stop-opacity:0"/>
	</linearGradient>
	<path fill="url(#SVGID_2_)" d="M42.708,136.532c0-55.11,44.672-99.78,99.78-99.78c55.108,0,99.78,44.67,99.78,99.78
		c0,55.103-44.671,99.778-99.78,99.778C87.38,236.31,42.708,191.634,42.708,136.532z"/>
</g>
<g>
	<radialGradient id="SVGID_3_" cx="149.7017" cy="45.7144" r="235.1048" gradientUnits="userSpaceOnUse">
		<stop  offset="0.1344" style="stop-color:#FFFFFF"/>
		<stop  offset="0.3423" style="stop-color:#F9FAFB"/>
		<stop  offset="0.5216" style="stop-color:#EEF0F2"/>
		<stop  offset="0.6902" style="stop-color:#DCE3E8"/>
		<stop  offset="0.8514" style="stop-color:#C4D2DA"/>
		<stop  offset="1" style="stop-color:#A8BFCB"/>
	</radialGradient>
	<path fill="url(#SVGID_3_)" d="M46.751,136.532c0-52.875,42.864-95.735,95.737-95.735c52.874,0,95.738,42.861,95.738,95.735
		c0,52.868-42.864,95.732-95.738,95.732C89.615,232.264,46.751,189.399,46.751,136.532z"/>
	<radialGradient id="SVGID_4_" cx="150.0581" cy="52.1606" r="232.9138" gradientUnits="userSpaceOnUse">
		<stop  offset="0.1344" style="stop-color:#FFFFFF"/>
		<stop  offset="0.3423" style="stop-color:#F9FAFB"/>
		<stop  offset="0.5216" style="stop-color:#EEF0F2"/>
		<stop  offset="0.6902" style="stop-color:#DCE3E8"/>
		<stop  offset="0.8514" style="stop-color:#C4D2DA"/>
		<stop  offset="1" style="stop-color:#A8BFCB"/>
	</radialGradient>
	<path fill="url(#SVGID_4_)" d="M144.858,42.108c52.15,1.309,93.365,44.644,92.056,96.794c-1.309,52.143-44.646,93.359-96.796,92.05
		c-52.148-1.309-93.363-44.647-92.054-96.791C49.373,82.012,92.709,40.799,144.858,42.108z"/>
	<radialGradient id="SVGID_5_" cx="150.4072" cy="58.4126" r="230.5531" gradientUnits="userSpaceOnUse">
		<stop  offset="0.1344" style="stop-color:#FFFFFF"/>
		<stop  offset="0.3423" style="stop-color:#F9FAFB"/>
		<stop  offset="0.5216" style="stop-color:#EEF0F2"/>
		<stop  offset="0.6902" style="stop-color:#DCE3E8"/>
		<stop  offset="0.8514" style="stop-color:#C4D2DA"/>
		<stop  offset="1" style="stop-color:#A8BFCB"/>
	</radialGradient>
	<path fill="url(#SVGID_5_)" d="M147.229,43.419c51.425,2.619,90.992,46.428,88.374,97.853
		c-2.619,51.419-46.429,90.986-97.854,88.368c-51.424-2.618-90.991-46.43-88.373-97.85C51.993,80.366,95.805,40.802,147.229,43.419z
		"/>
	<radialGradient id="SVGID_6_" cx="150.7505" cy="64.4795" r="228.0421" gradientUnits="userSpaceOnUse">
		<stop  offset="0.1344" style="stop-color:#FFFFFF"/>
		<stop  offset="0.3423" style="stop-color:#F9FAFB"/>
		<stop  offset="0.5216" style="stop-color:#EEF0F2"/>
		<stop  offset="0.6902" style="stop-color:#DCE3E8"/>
		<stop  offset="0.8514" style="stop-color:#C4D2DA"/>
		<stop  offset="1" style="stop-color:#A8BFCB"/>
	</radialGradient>
	<path fill="url(#SVGID_6_)" d="M149.599,44.73c50.7,3.928,88.618,48.21,84.691,98.912c-3.927,50.695-48.212,88.613-98.912,84.686
		c-50.7-3.928-88.618-48.213-84.69-98.909C54.614,78.719,98.899,40.804,149.599,44.73z"/>
	<radialGradient id="SVGID_7_" cx="151.0894" cy="70.3706" r="225.4043" gradientUnits="userSpaceOnUse">
		<stop  offset="0.1344" style="stop-color:#FFFFFF"/>
		<stop  offset="0.3423" style="stop-color:#F9FAFB"/>
		<stop  offset="0.5216" style="stop-color:#EEF0F2"/>
		<stop  offset="0.6902" style="stop-color:#DCE3E8"/>
		<stop  offset="0.8514" style="stop-color:#C4D2DA"/>
		<stop  offset="1" style="stop-color:#A8BFCB"/>
	</radialGradient>
	<path fill="url(#SVGID_7_)" d="M151.969,46.042c49.977,5.237,86.246,49.994,81.009,99.971c-5.236,49.97-49.995,86.24-99.971,81.004
		C83.033,221.78,46.763,177.021,52,127.049C57.235,77.074,101.994,40.807,151.969,46.042z"/>
	<radialGradient id="SVGID_8_" cx="151.4248" cy="76.0947" r="222.6575" gradientUnits="userSpaceOnUse">
		<stop  offset="0.1344" style="stop-color:#FFFFFF"/>
		<stop  offset="0.3423" style="stop-color:#F9FAFB"/>
		<stop  offset="0.5216" style="stop-color:#EEF0F2"/>
		<stop  offset="0.6902" style="stop-color:#DCE3E8"/>
		<stop  offset="0.8514" style="stop-color:#C4D2DA"/>
		<stop  offset="1" style="stop-color:#A8BFCB"/>
	</radialGradient>
	<path fill="url(#SVGID_8_)" d="M154.339,47.354c49.252,6.547,83.873,51.777,77.327,101.029
		c-6.545,49.247-51.777,83.868-101.028,77.322c-49.25-6.545-83.871-51.779-77.326-101.026
		C59.856,75.429,105.089,40.81,154.339,47.354z"/>
	<radialGradient id="SVGID_9_" cx="151.7573" cy="81.6626" r="219.8206" gradientUnits="userSpaceOnUse">
		<stop  offset="0.1344" style="stop-color:#FFFFFF"/>
		<stop  offset="0.3423" style="stop-color:#F9FAFB"/>
		<stop  offset="0.5216" style="stop-color:#EEF0F2"/>
		<stop  offset="0.6902" style="stop-color:#DCE3E8"/>
		<stop  offset="0.8514" style="stop-color:#C4D2DA"/>
		<stop  offset="1" style="stop-color:#A8BFCB"/>
	</radialGradient>
	<path fill="url(#SVGID_9_)" d="M156.71,48.665c48.527,7.856,81.5,53.56,73.645,102.087c-7.855,48.522-53.56,81.494-102.087,73.64
		c-48.526-7.854-81.499-53.561-73.644-102.084C62.477,73.782,108.183,40.812,156.71,48.665z"/>
	<radialGradient id="SVGID_10_" cx="152.0879" cy="87.0835" r="216.9132" gradientUnits="userSpaceOnUse">
		<stop  offset="0.1344" style="stop-color:#FFFFFF"/>
		<stop  offset="0.3423" style="stop-color:#F9FAFB"/>
		<stop  offset="0.5216" style="stop-color:#EEF0F2"/>
		<stop  offset="0.6902" style="stop-color:#DCE3E8"/>
		<stop  offset="0.8514" style="stop-color:#C4D2DA"/>
		<stop  offset="1" style="stop-color:#A8BFCB"/>
	</radialGradient>
	<path fill="url(#SVGID_10_)" d="M159.079,49.976c47.804,9.166,79.127,55.344,69.963,103.146
		c-9.164,47.798-55.342,79.122-103.145,69.958c-47.801-9.164-79.125-55.344-69.961-103.144
		C65.098,72.137,111.278,40.814,159.079,49.976z"/>
	<radialGradient id="SVGID_11_" cx="152.4199" cy="92.3706" r="213.9485" gradientUnits="userSpaceOnUse">
		<stop  offset="0.1344" style="stop-color:#FFFFFF"/>
		<stop  offset="0.3423" style="stop-color:#F9FAFB"/>
		<stop  offset="0.5216" style="stop-color:#EEF0F2"/>
		<stop  offset="0.6902" style="stop-color:#DCE3E8"/>
		<stop  offset="0.8514" style="stop-color:#C4D2DA"/>
		<stop  offset="1" style="stop-color:#A8BFCB"/>
	</radialGradient>
	<path fill="url(#SVGID_11_)" d="M161.45,51.288c47.079,10.475,76.754,57.126,66.28,104.205
		c-10.473,47.073-57.125,76.749-104.203,66.276c-47.077-10.473-76.752-57.127-66.279-104.203
		C67.719,70.491,114.373,40.818,161.45,51.288z"/>
	<radialGradient id="SVGID_12_" cx="152.7529" cy="97.5347" r="210.9438" gradientUnits="userSpaceOnUse">
		<stop  offset="0.1344" style="stop-color:#FFFFFF"/>
		<stop  offset="0.3423" style="stop-color:#F9FAFB"/>
		<stop  offset="0.5216" style="stop-color:#EEF0F2"/>
		<stop  offset="0.6902" style="stop-color:#DCE3E8"/>
		<stop  offset="0.8514" style="stop-color:#C4D2DA"/>
		<stop  offset="1" style="stop-color:#A8BFCB"/>
	</radialGradient>
	<path fill="url(#SVGID_12_)" d="M163.821,52.6c46.354,11.784,74.38,58.91,62.598,105.264
		c-11.782,46.349-58.908,74.375-105.261,62.594c-46.353-11.782-74.379-58.91-62.597-105.262
		C70.341,68.846,117.468,40.821,163.821,52.6z"/>
	<radialGradient id="SVGID_13_" cx="153.0884" cy="102.5859" r="207.9127" gradientUnits="userSpaceOnUse">
		<stop  offset="0.1344" style="stop-color:#FFFFFF"/>
		<stop  offset="0.3423" style="stop-color:#F9FAFB"/>
		<stop  offset="0.5216" style="stop-color:#EEF0F2"/>
		<stop  offset="0.6902" style="stop-color:#DCE3E8"/>
		<stop  offset="0.8514" style="stop-color:#C4D2DA"/>
		<stop  offset="1" style="stop-color:#A8BFCB"/>
	</radialGradient>
	<path fill="url(#SVGID_13_)" d="M166.19,53.91c45.63,13.094,72.008,60.693,58.916,106.322
		c-13.091,45.625-60.69,72.003-106.319,58.912c-45.628-13.091-72.006-60.692-58.915-106.32
		C72.961,67.199,120.562,40.823,166.19,53.91z"/>
	<radialGradient id="SVGID_14_" cx="153.4277" cy="107.5391" r="204.8672" gradientUnits="userSpaceOnUse">
		<stop  offset="0.1344" style="stop-color:#FFFFFF"/>
		<stop  offset="0.3423" style="stop-color:#F9FAFB"/>
		<stop  offset="0.5216" style="stop-color:#EEF0F2"/>
		<stop  offset="0.6902" style="stop-color:#DCE3E8"/>
		<stop  offset="0.8514" style="stop-color:#C4D2DA"/>
		<stop  offset="1" style="stop-color:#A8BFCB"/>
	</radialGradient>
	<path fill="url(#SVGID_14_)" d="M168.561,55.222c44.906,14.402,69.635,62.477,55.233,107.381
		c-14.399,44.901-62.473,69.63-107.377,55.23c-44.904-14.4-69.633-62.477-55.233-107.38
		C75.582,65.553,123.657,40.826,168.561,55.222z"/>
	<radialGradient id="SVGID_15_" cx="153.7729" cy="112.4067" r="201.8198" gradientUnits="userSpaceOnUse">
		<stop  offset="0.1344" style="stop-color:#FFFFFF"/>
		<stop  offset="0.3423" style="stop-color:#F9FAFB"/>
		<stop  offset="0.5216" style="stop-color:#EEF0F2"/>
		<stop  offset="0.6902" style="stop-color:#DCE3E8"/>
		<stop  offset="0.8514" style="stop-color:#C4D2DA"/>
		<stop  offset="1" style="stop-color:#A8BFCB"/>
	</radialGradient>
	<path fill="url(#SVGID_15_)" d="M170.932,56.533c44.181,15.712,67.261,64.26,51.551,108.44
		c-15.709,44.176-64.256,67.257-108.436,51.548c-44.179-15.709-67.26-64.258-51.551-108.438
		C78.203,63.907,126.752,40.829,170.932,56.533z"/>
	<radialGradient id="SVGID_16_" cx="154.126" cy="117.2012" r="198.7811" gradientUnits="userSpaceOnUse">
		<stop  offset="0.1344" style="stop-color:#FFFFFF"/>
		<stop  offset="0.3423" style="stop-color:#F9FAFB"/>
		<stop  offset="0.5216" style="stop-color:#EEF0F2"/>
		<stop  offset="0.6902" style="stop-color:#DCE3E8"/>
		<stop  offset="0.8514" style="stop-color:#C4D2DA"/>
		<stop  offset="1" style="stop-color:#A8BFCB"/>
	</radialGradient>
	<path fill="url(#SVGID_16_)" d="M173.302,57.845c43.457,17.021,64.889,66.043,47.869,109.499
		c-17.019,43.452-66.039,64.884-109.494,47.866c-43.455-17.019-64.887-66.042-47.869-109.497
		C80.824,62.262,129.847,40.832,173.302,57.845z"/>
	<radialGradient id="SVGID_17_" cx="154.4863" cy="121.9365" r="195.7608" gradientUnits="userSpaceOnUse">
		<stop  offset="0.1344" style="stop-color:#FFFFFF"/>
		<stop  offset="0.3423" style="stop-color:#F9FAFB"/>
		<stop  offset="0.5216" style="stop-color:#EEF0F2"/>
		<stop  offset="0.6902" style="stop-color:#DCE3E8"/>
		<stop  offset="0.8514" style="stop-color:#C4D2DA"/>
		<stop  offset="1" style="stop-color:#A8BFCB"/>
	</radialGradient>
	<path fill="url(#SVGID_17_)" d="M175.672,59.156c42.732,18.331,62.516,67.827,44.187,110.558
		c-18.327,42.728-67.821,62.511-110.551,44.184c-42.731-18.328-62.514-67.825-44.186-110.556
		C83.445,60.616,132.941,40.834,175.672,59.156z"/>
	<radialGradient id="SVGID_18_" cx="154.856" cy="126.6274" r="192.7691" gradientUnits="userSpaceOnUse">
		<stop  offset="0.1344" style="stop-color:#FFFFFF"/>
		<stop  offset="0.3423" style="stop-color:#F9FAFB"/>
		<stop  offset="0.5216" style="stop-color:#EEF0F2"/>
		<stop  offset="0.6902" style="stop-color:#DCE3E8"/>
		<stop  offset="0.8514" style="stop-color:#C4D2DA"/>
		<stop  offset="1" style="stop-color:#A8BFCB"/>
	</radialGradient>
	<path fill="url(#SVGID_18_)" d="M178.042,60.467c42.008,19.641,60.143,69.61,40.505,111.616
		c-19.636,42.004-69.604,60.139-111.61,40.502c-42.006-19.637-60.141-69.608-40.504-111.615
		C86.066,58.97,136.037,40.837,178.042,60.467z"/>
	<radialGradient id="SVGID_19_" cx="155.2368" cy="131.2871" r="189.8141" gradientUnits="userSpaceOnUse">
		<stop  offset="0.1344" style="stop-color:#FFFFFF"/>
		<stop  offset="0.3423" style="stop-color:#F9FAFB"/>
		<stop  offset="0.5216" style="stop-color:#EEF0F2"/>
		<stop  offset="0.6902" style="stop-color:#DCE3E8"/>
		<stop  offset="0.8514" style="stop-color:#C4D2DA"/>
		<stop  offset="1" style="stop-color:#A8BFCB"/>
	</radialGradient>
	<path fill="url(#SVGID_19_)" d="M180.413,61.778c41.283,20.95,57.769,71.393,36.822,112.676
		c-20.946,41.279-71.387,57.765-112.668,36.819C63.285,190.327,46.799,139.883,67.745,98.6
		C88.687,57.324,139.131,40.84,180.413,61.778z"/>
	<radialGradient id="SVGID_20_" cx="155.6299" cy="135.9307" r="186.9046" gradientUnits="userSpaceOnUse">
		<stop  offset="0.1344" style="stop-color:#FFFFFF"/>
		<stop  offset="0.3423" style="stop-color:#F9FAFB"/>
		<stop  offset="0.5216" style="stop-color:#EEF0F2"/>
		<stop  offset="0.6902" style="stop-color:#DCE3E8"/>
		<stop  offset="0.8514" style="stop-color:#C4D2DA"/>
		<stop  offset="1" style="stop-color:#A8BFCB"/>
	</radialGradient>
	<path fill="url(#SVGID_20_)" d="M182.783,63.09c40.559,22.259,55.396,73.176,33.14,113.734
		c-22.255,40.555-73.169,55.393-113.727,33.138s-55.395-73.173-33.14-113.733C91.308,55.679,142.226,40.842,182.783,63.09z"/>
	<radialGradient id="SVGID_21_" cx="156.0366" cy="140.5718" r="184.0496" gradientUnits="userSpaceOnUse">
		<stop  offset="0.1344" style="stop-color:#FFFFFF"/>
		<stop  offset="0.3423" style="stop-color:#F9FAFB"/>
		<stop  offset="0.5216" style="stop-color:#EEF0F2"/>
		<stop  offset="0.6902" style="stop-color:#DCE3E8"/>
		<stop  offset="0.8514" style="stop-color:#C4D2DA"/>
		<stop  offset="1" style="stop-color:#A8BFCB"/>
	</radialGradient>
	<path fill="url(#SVGID_21_)" d="M185.153,64.401c39.834,23.568,53.023,74.959,29.458,114.792
		c-23.563,39.831-74.952,53.021-114.785,29.456c-39.832-23.563-53.021-74.956-29.457-114.791
		C93.93,54.032,145.321,40.845,185.153,64.401z"/>
	<radialGradient id="SVGID_22_" cx="156.4585" cy="145.2261" r="181.2597" gradientUnits="userSpaceOnUse">
		<stop  offset="0.1344" style="stop-color:#FFFFFF"/>
		<stop  offset="0.3423" style="stop-color:#F9FAFB"/>
		<stop  offset="0.5216" style="stop-color:#EEF0F2"/>
		<stop  offset="0.6902" style="stop-color:#DCE3E8"/>
		<stop  offset="0.8514" style="stop-color:#C4D2DA"/>
		<stop  offset="1" style="stop-color:#A8BFCB"/>
	</radialGradient>
	<path fill="url(#SVGID_22_)" d="M187.523,65.713c39.11,24.878,50.65,76.742,25.775,115.852
		c-24.873,39.106-76.734,50.646-115.842,25.773c-39.109-24.873-50.649-76.739-25.775-115.85
		C96.551,52.387,148.416,40.848,187.523,65.713z"/>
	<radialGradient id="SVGID_23_" cx="156.896" cy="149.9062" r="178.5457" gradientUnits="userSpaceOnUse">
		<stop  offset="0.1344" style="stop-color:#FFFFFF"/>
		<stop  offset="0.3423" style="stop-color:#F9FAFB"/>
		<stop  offset="0.5216" style="stop-color:#EEF0F2"/>
		<stop  offset="0.6902" style="stop-color:#DCE3E8"/>
		<stop  offset="0.8514" style="stop-color:#C4D2DA"/>
		<stop  offset="1" style="stop-color:#A8BFCB"/>
	</radialGradient>
	<path fill="url(#SVGID_23_)" d="M189.894,67.024c38.385,26.187,48.277,78.525,22.093,116.91
		c-26.182,38.382-78.518,48.274-116.901,22.092c-38.384-26.183-48.275-78.522-22.093-116.909
		C99.171,50.741,151.51,40.85,189.894,67.024z"/>
	<radialGradient id="SVGID_24_" cx="157.3511" cy="154.6289" r="175.9201" gradientUnits="userSpaceOnUse">
		<stop  offset="0.1344" style="stop-color:#FFFFFF"/>
		<stop  offset="0.3423" style="stop-color:#F9FAFB"/>
		<stop  offset="0.5216" style="stop-color:#EEF0F2"/>
		<stop  offset="0.6902" style="stop-color:#DCE3E8"/>
		<stop  offset="0.8514" style="stop-color:#C4D2DA"/>
		<stop  offset="1" style="stop-color:#A8BFCB"/>
	</radialGradient>
	<path fill="url(#SVGID_24_)" d="M192.264,68.336c37.661,27.496,45.904,80.309,18.411,117.968
		c-27.491,37.658-80.3,45.901-117.958,18.41c-37.66-27.491-45.903-80.305-18.411-117.967
		C101.792,49.095,154.605,40.853,192.264,68.336z"/>
	<radialGradient id="SVGID_25_" cx="157.8242" cy="159.4062" r="173.3998" gradientUnits="userSpaceOnUse">
		<stop  offset="0.1344" style="stop-color:#FFFFFF"/>
		<stop  offset="0.3423" style="stop-color:#F9FAFB"/>
		<stop  offset="0.5216" style="stop-color:#EEF0F2"/>
		<stop  offset="0.6902" style="stop-color:#DCE3E8"/>
		<stop  offset="0.8514" style="stop-color:#C4D2DA"/>
		<stop  offset="1" style="stop-color:#A8BFCB"/>
	</radialGradient>
	<path fill="url(#SVGID_25_)" d="M194.634,69.647c36.937,28.806,43.531,82.092,14.729,119.027
		c-28.8,36.934-82.083,43.528-119.017,14.728c-36.935-28.801-43.529-82.087-14.729-119.027
		C104.414,47.45,157.7,40.855,194.634,69.647z"/>
	<radialGradient id="SVGID_26_" cx="158.3169" cy="164.2544" r="171.0033" gradientUnits="userSpaceOnUse">
		<stop  offset="0.1344" style="stop-color:#FFFFFF"/>
		<stop  offset="0.3423" style="stop-color:#F9FAFB"/>
		<stop  offset="0.5216" style="stop-color:#EEF0F2"/>
		<stop  offset="0.6902" style="stop-color:#DCE3E8"/>
		<stop  offset="0.8514" style="stop-color:#C4D2DA"/>
		<stop  offset="1" style="stop-color:#A8BFCB"/>
	</radialGradient>
	<path fill="url(#SVGID_26_)" d="M197.005,70.958c36.212,30.115,41.158,83.875,11.047,120.086
		c-30.109,36.209-83.865,41.155-120.075,11.046C51.766,171.98,46.82,118.22,76.93,82.005
		C107.035,45.804,160.795,40.858,197.005,70.958z"/>
	<radialGradient id="SVGID_27_" cx="158.8296" cy="169.1841" r="168.7566" gradientUnits="userSpaceOnUse">
		<stop  offset="0.1344" style="stop-color:#FFFFFF"/>
		<stop  offset="0.3423" style="stop-color:#F9FAFB"/>
		<stop  offset="0.5216" style="stop-color:#EEF0F2"/>
		<stop  offset="0.6902" style="stop-color:#DCE3E8"/>
		<stop  offset="0.8514" style="stop-color:#C4D2DA"/>
		<stop  offset="1" style="stop-color:#A8BFCB"/>
	</radialGradient>
	<path fill="url(#SVGID_27_)" d="M199.375,72.27c35.487,31.424,38.785,85.658,7.364,121.145
		c-31.418,35.485-85.648,38.782-121.133,7.364c-35.486-31.419-38.784-85.653-7.365-121.144
		C109.655,44.158,163.89,40.861,199.375,72.27z"/>
	<radialGradient id="SVGID_28_" cx="159.3643" cy="174.2109" r="166.6869" gradientUnits="userSpaceOnUse">
		<stop  offset="0.1344" style="stop-color:#FFFFFF"/>
		<stop  offset="0.3423" style="stop-color:#F9FAFB"/>
		<stop  offset="0.5216" style="stop-color:#EEF0F2"/>
		<stop  offset="0.6902" style="stop-color:#DCE3E8"/>
		<stop  offset="0.8514" style="stop-color:#C4D2DA"/>
		<stop  offset="1" style="stop-color:#A8BFCB"/>
	</radialGradient>
	<path fill="url(#SVGID_28_)" d="M201.745,73.581c34.764,32.733,36.412,87.442,3.683,122.204
		c-32.728,34.761-87.431,36.41-122.191,3.682c-34.761-32.728-36.41-87.437-3.682-122.204
		C112.276,42.512,166.984,40.863,201.745,73.581z"/>
	<radialGradient id="SVGID_29_" cx="159.9209" cy="179.3472" r="164.8313" gradientUnits="userSpaceOnUse">
		<stop  offset="0.1344" style="stop-color:#FFFFFF"/>
		<stop  offset="0.3423" style="stop-color:#F9FAFB"/>
		<stop  offset="0.5216" style="stop-color:#EEF0F2"/>
		<stop  offset="0.6902" style="stop-color:#DCE3E8"/>
		<stop  offset="0.8514" style="stop-color:#C4D2DA"/>
		<stop  offset="1" style="stop-color:#A8BFCB"/>
	</radialGradient>
	<path fill="url(#SVGID_29_)" d="M204.116,74.893c34.039,34.043,34.039,89.225,0,123.262c-34.037,34.037-89.213,34.037-123.25,0
		c-34.037-34.037-34.037-89.219,0-123.262C114.897,40.866,170.079,40.866,204.116,74.893z"/>
</g>
<g>
	<text transform="matrix(1 0 0 1 72.603 128.627)"><tspan x="0" y="0" fill="#0075C9" font-family="'HelveticaNeue-Bold'" font-size="42.7328">NORI</tspan><tspan x="104.951" y="0" fill="#0075C9" font-family="'HelveticaNeue-Bold'" font-size="42.7328">S</tspan></text>
	
		<text transform="matrix(0.583 0 0 0.583 203.3047 102.2241)" fill="#0075C9" font-family="'HelveticaNeue-Bold'" font-size="12.1504">®</text>
</g>
<g>
	<defs>
		<path id="SVGID_30_" d="M210.182,68.829c37.39,37.393,37.39,98.008,0,135.395c-37.387,37.388-97.995,37.388-135.382,0
			c-37.387-37.386-37.387-98.001,0-135.395C112.181,31.452,172.794,31.452,210.182,68.829z"/>
	</defs>
	<clipPath id="SVGID_31_">
		<use xlink:href="#SVGID_30_"  overflow="visible"/>
	</clipPath>
	<g clip-path="url(#SVGID_31_)">
		
			<linearGradient id="SVGID_32_" gradientUnits="userSpaceOnUse" x1="-2724.7148" y1="6727.1074" x2="-2535.085" y2="6599.2007" gradientTransform="matrix(0.9086 0.4176 -0.4176 0.9086 5300.3691 -4728.1118)">
			<stop  offset="0" style="stop-color:#6CC04A"/>
			<stop  offset="1" style="stop-color:#6CC04A;stop-opacity:0.1"/>
		</linearGradient>
		<path fill="url(#SVGID_32_)" d="M237.689,188.716c0.045-4.996-4.945-6.971-10.348-7.087c-31.76-0.705-165.106,34.668-207.215,62
			c-3.211,2.082-4.708,4.689-3.691,8.302c1.31,4.627,3.845,12.762,7.741,17.108c2.143,2.396,7.098,6.947,9.138,5.478
			c75.435-54.149,171.862-88.876,193.036-87.257c2.392,0.188,3.749,1.23,3.319,2.912
			C229.317,191.593,237.668,190.727,237.689,188.716z"/>
		<path fill="#0075C9" d="M167.539,153.104c-25.178-14.607-99.398,31.638-149.993,89.341c-3.144,3.581-4.185,5.173-3.26,8.5
			c1.434,5.131,4.785,12.143,9.891,18.095c5.101,5.951,8.289,7.127,10.086,4.556c7.84-11.208,62.671-82.918,115.236-99.76
			c17.316-5.549,24.23,5.511,28.332,11.201c6.263,8.703,18.146,39.131,18.714,80.923c0.046,3.387,1.767,3.696,2.974,3.666
			c3.65-0.089,6.815-3.222,9.617-7.333c6.357-9.324,20.606-36.3,28.438-72.7c0.294-1.379,0.112-2.314-2.324-2.026
			c-1.041,0.125-2.625,0.156-3.992,0.663c-1.882,0.701-1.498,2.269-3.195,9.042c-4.933,19.612-14.771,41.621-16.351,44.844
			c-1.398,2.851-2.502,5.622-2.756-1.005C208.655,233.176,203.785,174.128,167.539,153.104z"/>
		
			<linearGradient id="SVGID_33_" gradientUnits="userSpaceOnUse" x1="-1341.4702" y1="944.9336" x2="-1255.877" y2="796.6817" gradientTransform="matrix(0.9987 -0.0522 0.0522 0.9987 1377.6498 -710.2565)">
			<stop  offset="0" style="stop-color:#6CC04A"/>
			<stop  offset="0.6541" style="stop-color:#6CC04A;stop-opacity:0"/>
		</linearGradient>
		<path fill="url(#SVGID_33_)" d="M167.539,153.104c-25.178-14.607-99.398,31.638-149.993,89.341c-3.144,3.581-4.185,5.173-3.26,8.5
			c1.434,5.131,4.785,12.143,9.891,18.095c5.101,5.951,8.289,7.127,10.086,4.556c7.84-11.208,62.671-82.918,115.236-99.76
			c17.316-5.549,24.23,5.511,28.332,11.201c6.263,8.703,18.146,39.131,18.714,80.923c0.046,3.387,1.767,3.696,2.974,3.666
			c3.65-0.089,6.815-3.222,9.617-7.333c6.357-9.324,20.606-36.3,28.438-72.7c0.294-1.379,0.112-2.314-2.324-2.026
			c-1.041,0.125-2.625,0.156-3.992,0.663c-1.882,0.701-1.498,2.269-3.195,9.042c-4.933,19.612-14.771,41.621-16.351,44.844
			c-1.398,2.851-2.502,5.622-2.756-1.005C208.655,233.176,203.785,174.128,167.539,153.104z"/>
	</g>
</g>
</svg>
